<svg width="17" height="17" viewBox="0 0 17 17" fill="none" xmlns="http://www.w3.org/2000/svg">
<path d="M13.6496 3.77534C12.7075 3.33617 11.6875 3.01742 10.625 2.83325C10.6038 2.83325 10.5896 2.84034 10.5754 2.8545C10.4479 3.08825 10.2992 3.39284 10.2 3.62659C9.0596 3.45659 7.91918 3.45659 6.80001 3.62659C6.70085 3.38575 6.5521 3.08825 6.41751 2.8545C6.41043 2.84034 6.38918 2.83325 6.36793 2.83325C5.30543 3.01742 4.29251 3.33617 3.34335 3.77534C3.33626 3.77534 3.32918 3.78242 3.3221 3.7895C1.39543 6.67242 0.864178 9.47742 1.12626 12.2541C1.12626 12.2683 1.13335 12.2824 1.14751 12.2895C2.42251 13.2245 3.64793 13.7912 4.85918 14.1666C4.88043 14.1737 4.90168 14.1666 4.90876 14.1524C5.1921 13.7628 5.4471 13.352 5.66668 12.9199C5.68085 12.8916 5.66668 12.8633 5.63835 12.8562C5.2346 12.7003 4.8521 12.5162 4.47668 12.3037C4.44835 12.2895 4.44835 12.247 4.4696 12.2258C4.54751 12.1691 4.62543 12.1053 4.70335 12.0487C4.71751 12.0345 4.73876 12.0345 4.75293 12.0416C7.1896 13.1537 9.81751 13.1537 12.2258 12.0416C12.24 12.0345 12.2613 12.0345 12.2754 12.0487C12.3533 12.1124 12.4313 12.1691 12.5092 12.2328C12.5375 12.2541 12.5375 12.2966 12.5021 12.3108C12.1338 12.5303 11.7442 12.7074 11.3404 12.8633C11.3121 12.8703 11.305 12.9058 11.3121 12.927C11.5388 13.3591 11.7938 13.7699 12.07 14.1595C12.0913 14.1666 12.1125 14.1737 12.1338 14.1666C13.3521 13.7912 14.5775 13.2245 15.8525 12.2895C15.8667 12.2824 15.8738 12.2683 15.8738 12.2541C16.1854 9.04533 15.3567 6.26158 13.6779 3.7895C13.6708 3.78242 13.6638 3.77534 13.6496 3.77534ZM6.03501 10.5612C5.30543 10.5612 4.69626 9.88825 4.69626 9.0595C4.69626 8.23075 5.29126 7.55783 6.03501 7.55783C6.78585 7.55783 7.38085 8.23783 7.37376 9.0595C7.37376 9.88825 6.77876 10.5612 6.03501 10.5612ZM10.9721 10.5612C10.2425 10.5612 9.63335 9.88825 9.63335 9.0595C9.63335 8.23075 10.2283 7.55783 10.9721 7.55783C11.7229 7.55783 12.3179 8.23783 12.3108 9.0595C12.3108 9.88825 11.7229 10.5612 10.9721 10.5612Z" fill="white"/>
</svg>
