<svg width="52" height="14" xmlns="http://www.w3.org/2000/svg">
 <g>
  <title>Layer 1</title>
  <line fill="none" stroke="#000" opacity="NaN" x1="311" y1="59" x2="311" y2="59" id="svg_11" stroke-linejoin="undefined" stroke-linecap="undefined"/>
  <line fill="none" stroke="#000" opacity="NaN" x1="242" y1="62" x2="242" y2="62" id="svg_12" stroke-linejoin="undefined" stroke-linecap="undefined"/>
  <line fill="none" stroke="#000" opacity="NaN" x1="279" y1="65" x2="279" y2="65" id="svg_13" stroke-linejoin="undefined" stroke-linecap="undefined"/>
  <line fill="none" stroke="#000" opacity="NaN" x1="271" y1="48" x2="271" y2="48" id="svg_14" stroke-linejoin="undefined" stroke-linecap="undefined"/>
  <line fill="none" stroke="#000" opacity="NaN" x1="403" y1="122" x2="403" y2="122" id="svg_15" stroke-linejoin="undefined" stroke-linecap="undefined"/>
  <line fill="none" stroke="#000" opacity="NaN" x1="403" y1="122" x2="403" y2="122" id="svg_16" stroke-linejoin="undefined" stroke-linecap="undefined"/>
  <line fill="none" stroke="#000" opacity="NaN" x1="403" y1="122" x2="403" y2="122" id="svg_17" stroke-linejoin="undefined" stroke-linecap="undefined"/>
  <line fill="none" stroke="#000" opacity="NaN" x1="299" y1="38" x2="299" y2="38" id="svg_18" stroke-linejoin="undefined" stroke-linecap="undefined"/>
  <line fill="none" stroke="#000" opacity="NaN" x1="560" y1="133" x2="560" y2="133" id="svg_19" stroke-linejoin="undefined" stroke-linecap="undefined"/>
  <line fill="none" stroke="#000" opacity="NaN" x1="271" y1="76" x2="271" y2="76" id="svg_20" stroke-linejoin="undefined" stroke-linecap="undefined"/>
  <line fill="none" stroke="#000" opacity="NaN" x1="271" y1="76" x2="271" y2="76" id="svg_21" stroke-linejoin="undefined" stroke-linecap="undefined"/>
  <line fill="none" stroke="#000" opacity="NaN" x1="271" y1="76" x2="271" y2="76" id="svg_22" stroke-linejoin="undefined" stroke-linecap="undefined"/>
  <line fill="none" stroke="#000" opacity="NaN" x1="200" y1="63" x2="200" y2="63" id="svg_23" stroke-linejoin="undefined" stroke-linecap="undefined"/>
  <line fill="none" stroke="#000" opacity="NaN" x1="271" y1="95" x2="271" y2="95" id="svg_24" stroke-linejoin="undefined" stroke-linecap="undefined"/>
  <line fill="none" stroke="#000" opacity="NaN" x1="311" y1="88" x2="311" y2="88" id="svg_25" stroke-linejoin="undefined" stroke-linecap="undefined"/>
  <line fill="none" stroke="#000" opacity="NaN" x1="311" y1="88" x2="311" y2="88" id="svg_26" stroke-linejoin="undefined" stroke-linecap="undefined"/>
  <line fill="none" stroke="#000" opacity="NaN" x1="311" y1="88" x2="311" y2="88" id="svg_27" stroke-linejoin="undefined" stroke-linecap="undefined"/>
  <polyline fill="none" stroke="#000" opacity="NaN" points="220,66 " id="svg_28" stroke-linecap="round"/>
  <polyline fill="none" stroke="#000" opacity="NaN" points="96,2 " id="svg_29" stroke-linecap="round"/>
  <line stroke-width="2" stroke-linecap="undefined" stroke-linejoin="undefined" id="svg_2" y2="1" x2="50" y1="1" x1="1" stroke="#000" fill="none"/>
  <line stroke="#000" stroke-linecap="undefined" stroke-linejoin="undefined" id="svg_9" y2="2" x2="17" y1="1" x1="17" fill="none"/>
  <line stroke-width="2" stroke-linecap="undefined" stroke-linejoin="undefined" id="svg_10" y2="12" x2="52" y1="12" x1="16" stroke="#000" fill="none"/>
 </g>

</svg>