<svg width="17" height="17" viewBox="0 0 17 17" fill="none" xmlns="http://www.w3.org/2000/svg">
<g clip-path="url(#clip0)">
<path d="M5.34803 15.4063C11.7615 15.4063 15.2704 10.0914 15.2704 5.48385C15.2704 5.33443 15.2671 5.1817 15.2605 5.03229C15.9431 4.53865 16.5321 3.92721 17 3.2267C16.3643 3.50954 15.6893 3.69426 14.9982 3.77455C15.7259 3.33834 16.2708 2.65307 16.5318 1.84578C15.8472 2.25151 15.0985 2.53771 14.3179 2.69213C13.7918 2.13322 13.0964 1.76315 12.3389 1.63915C11.5815 1.51515 10.8043 1.64411 10.1276 2.0061C9.45079 2.36809 8.91211 2.94295 8.59481 3.64179C8.27751 4.34064 8.19926 5.12455 8.37217 5.87233C6.98593 5.80276 5.62979 5.44265 4.39165 4.81535C3.15352 4.18805 2.06103 3.30755 1.18502 2.23094C0.739783 2.99858 0.60354 3.90695 0.80398 4.77143C1.00442 5.63591 1.5265 6.39164 2.26412 6.88502C1.71036 6.86744 1.16873 6.71835 0.683984 6.45006V6.49322C0.683488 7.2988 0.961986 8.0797 1.47214 8.70316C1.98229 9.32662 2.6926 9.75418 3.48234 9.91315C2.96937 10.0535 2.43099 10.0739 1.90885 9.97291C2.1317 10.6657 2.56528 11.2717 3.14909 11.7062C3.73289 12.1407 4.43779 12.3821 5.16541 12.3967C3.93013 13.3671 2.40421 13.8934 0.833398 13.8909C0.554828 13.8905 0.276533 13.8734 0 13.8397C1.59577 14.8635 3.45208 15.4073 5.34803 15.4063Z" fill="white"/>
</g>
<defs>
<clipPath id="clip0">
<rect width="17" height="17" fill="white"/>
</clipPath>
</defs>
</svg>
