<svg width="17" height="17" viewBox="0 0 17 17" fill="none" xmlns="http://www.w3.org/2000/svg">
<path d="M16.8307 5.10015C16.8307 5.10015 16.6646 3.92808 16.1533 3.41343C15.5059 2.73608 14.782 2.73276 14.45 2.69292C12.0727 2.52026 8.50332 2.52026 8.50332 2.52026H8.49668C8.49668 2.52026 4.92734 2.52026 2.55 2.69292C2.21797 2.73276 1.49414 2.73608 0.84668 3.41343C0.335352 3.92808 0.172656 5.10015 0.172656 5.10015C0.172656 5.10015 0 6.47808 0 7.85269V9.14097C0 10.5156 0.169336 11.8935 0.169336 11.8935C0.169336 11.8935 0.335351 13.0656 0.843359 13.5802C1.49082 14.2576 2.34082 14.2343 2.71934 14.3074C4.08066 14.4369 8.5 14.4767 8.5 14.4767C8.5 14.4767 12.0727 14.4701 14.45 14.3007C14.782 14.2609 15.5059 14.2576 16.1533 13.5802C16.6646 13.0656 16.8307 11.8935 16.8307 11.8935C16.8307 11.8935 17 10.5189 17 9.14097V7.85269C17 6.47808 16.8307 5.10015 16.8307 5.10015ZM6.74356 10.7048V5.9269L11.3355 8.32417L6.74356 10.7048Z" fill="white"/>
</svg>
