<svg width="66" height="66" viewBox="0 0 66 66" fill="none" xmlns="http://www.w3.org/2000/svg">
<g filter="url(#filter0_d)">
<rect width="20" height="20" transform="matrix(1 0 0 -1 29 37)" fill="#0A0F0D" fill-opacity="0.88" shape-rendering="crispEdges"/>
</g>
<path d="M38.7762 22.8028L42.6282 26.7027C42.6668 26.7415 42.6974 26.7877 42.7183 26.8387C42.7392 26.8897 42.75 26.9445 42.75 26.9998C42.75 27.0551 42.7392 27.1099 42.7183 27.1609C42.6974 27.2119 42.6668 27.2581 42.6282 27.2969L38.7762 31.1968C38.6628 31.311 38.5101 31.375 38.351 31.375C38.192 31.375 38.0393 31.311 37.9258 31.1968C37.8701 31.1406 37.8259 31.0736 37.7957 30.9998C37.7655 30.9259 37.75 30.8466 37.75 30.7666C37.75 30.6865 37.7655 30.6072 37.7957 30.5334C37.8259 30.4595 37.8701 30.3925 37.9258 30.3363L41.2212 26.9998L37.9258 23.6641C37.8702 23.6079 37.826 23.5408 37.7958 23.4669C37.7657 23.393 37.7501 23.3137 37.7501 23.2337C37.7501 23.1536 37.7657 23.0743 37.7958 23.0004C37.826 22.9265 37.8702 22.8595 37.9258 22.8032C38.0393 22.689 38.192 22.625 38.351 22.625C38.5101 22.625 38.6628 22.689 38.7762 22.8032" fill="white"/>
<defs>
<filter id="filter0_d" x="0" y="0" width="66" height="66" filterUnits="userSpaceOnUse" color-interpolation-filters="sRGB">
<feFlood flood-opacity="0" result="BackgroundImageFix"/>
<feColorMatrix in="SourceAlpha" type="matrix" values="0 0 0 0 0 0 0 0 0 0 0 0 0 0 0 0 0 0 127 0" result="hardAlpha"/>
<feOffset dx="-6" dy="6"/>
<feGaussianBlur stdDeviation="11.5"/>
<feComposite in2="hardAlpha" operator="out"/>
<feColorMatrix type="matrix" values="0 0 0 0 0 0 0 0 0 0.431373 0 0 0 0 0.564706 0 0 0 0.17 0"/>
<feBlend mode="normal" in2="BackgroundImageFix" result="effect1_dropShadow"/>
<feBlend mode="normal" in="SourceGraphic" in2="effect1_dropShadow" result="shape"/>
</filter>
</defs>
</svg>
