<svg width="149" height="208" viewBox="0 0 149 208" fill="none" xmlns="http://www.w3.org/2000/svg">
<g clip-path="url(#clip0)">
<path opacity="0.4" d="M137.5 161.047L128.929 133.374C128.269 131.217 127.187 129.212 125.746 127.477C124.305 125.741 122.534 124.31 120.534 123.265C117.55 121.685 114.166 121.021 110.806 121.357C107.725 120.567 104.487 120.638 101.444 121.563L99.3186 122.223C96.4936 123.101 93.9434 124.695 91.9154 126.848L73.9081 132.412C71.0192 131.788 68.0189 131.912 65.1914 132.772L63.0462 133.434C60.0125 134.384 57.3004 136.154 55.2096 138.549C51.7257 140.436 49.0064 143.476 47.5179 147.147C46.0294 150.819 45.8643 154.895 47.0508 158.675L55.6243 186.369C58.0291 194.111 65.7538 199.104 73.7111 198.357C76.8032 199.164 80.0587 199.093 83.113 198.153L85.2489 197.495C88.0569 196.624 90.6145 195.016 92.6386 192.877L110.639 187.314C113.53 187.953 116.538 187.827 119.366 186.95L121.492 186.295C124.535 185.345 127.256 183.571 129.353 181.17C132.306 179.549 134.718 177.097 136.29 174.118C137.348 172.129 138 169.948 138.208 167.704C138.415 165.46 138.175 163.198 137.5 161.047Z" fill="#80B7C8" fill-opacity="0.84"/>
<path opacity="0.8" d="M131.429 162.929L122.854 135.246C122.438 133.888 121.756 132.626 120.849 131.533C119.941 130.44 118.826 129.538 117.567 128.88C115.317 127.693 112.794 127.316 110.318 127.855C108.076 127.007 105.616 126.929 103.324 127.634L101.196 128.291C98.9089 128.998 96.9502 130.448 95.592 132.357L73.9902 139.034C71.7678 138.212 69.3369 138.143 67.0714 138.837L64.9313 139.499C62.6461 140.214 60.6622 141.666 59.2899 143.628C54.2045 145.747 51.4644 151.438 53.1249 156.796L61.7006 184.486C63.3655 189.842 68.9326 192.951 74.2317 191.867C76.4769 192.711 78.9375 192.789 81.2318 192.09L83.3653 191.428C85.625 190.723 87.5908 189.295 88.961 187.365L110.563 180.691C112.787 181.51 115.218 181.578 117.485 180.885L119.614 180.224C121.904 179.513 123.893 178.06 125.266 176.094C127.588 175.132 129.498 173.385 130.665 171.159C131.331 169.906 131.742 168.534 131.873 167.121C132.004 165.708 131.853 164.283 131.429 162.929Z" fill="#0F273E"/>
<path d="M28.1162 74.7243C35.0876 72.7025 42.5715 75.6633 48.1208 81.7715C49.5364 73.6476 54.2647 67.1395 61.2364 65.1154C68.2088 63.0933 75.6927 66.0541 81.2442 72.1627C82.6567 64.0356 87.3856 57.5293 94.3566 55.5066C100.377 53.7614 106.784 55.7267 111.993 60.2221C103.43 31.246 73.5967 8.28672 47.2572 15.9308C21.1926 23.4891 8.37564 58.3003 16.1214 87.0558C18.2489 81.0076 22.4347 76.3715 28.1143 74.7249" fill="#8CD9F0" fill-opacity="0.4"/>
<path opacity="0.5" d="M49.5138 15.7344C56.2496 21.2109 71.1688 36.1072 81.1495 71.5696M44.8313 17.0922C42.0786 25.3595 37.3456 45.9237 47.9136 81.1384L44.8313 17.0922Z" stroke="#B2BABD" stroke-width="1.476" stroke-linecap="round" stroke-linejoin="round"/>
<path opacity="0.4" d="M16.1223 87.0555L79.0326 146.372L95.6404 141.204L111.993 60.2221" stroke="black" stroke-width="1.476" stroke-linecap="round" stroke-linejoin="round"/>
<path opacity="0.4" d="M81.243 72.162L86.8068 143.993L48.1228 81.7709" stroke="black" stroke-width="1.476" stroke-linecap="round" stroke-linejoin="round"/>
<path d="M65.1765 167.15L118.761 150.59L123.061 164.459C123.222 164.98 123.279 165.528 123.228 166.071C123.177 166.614 123.02 167.142 122.765 167.624C122.51 168.106 122.163 168.533 121.743 168.881C121.323 169.229 120.838 169.49 120.317 169.651L74.6711 183.762C73.6187 184.086 72.4806 183.98 71.5064 183.466C70.5321 182.953 69.8012 182.074 69.4738 181.023L65.1765 167.15Z" fill="#869AA5"/>
<path d="M70.1396 165.618L80.0637 162.551L84.9712 178.402C85.133 178.923 85.1905 179.47 85.1404 180.013C85.0903 180.556 84.9336 181.083 84.6793 181.565C84.4249 182.047 84.0779 182.475 83.6582 182.822C83.2385 183.17 82.7543 183.432 82.2333 183.592L80.2482 184.206C79.7272 184.369 79.1795 184.427 78.6361 184.377C78.0928 184.327 77.5647 184.171 77.0818 183.917C76.599 183.663 76.171 183.316 75.8223 182.896C75.4737 182.477 75.2112 181.992 75.0499 181.471L70.1396 165.618ZM103.879 155.188L113.8 152.123L118.711 167.976C118.873 168.496 118.93 169.044 118.879 169.587C118.829 170.13 118.672 170.657 118.417 171.139C118.163 171.621 117.815 172.048 117.396 172.396C116.976 172.744 116.491 173.006 115.97 173.166L113.985 173.781C112.933 174.106 111.795 174.001 110.821 173.488C109.847 172.975 109.116 172.096 108.79 171.044L103.879 155.189L103.879 155.188Z" fill="#5E6871"/>
<path d="M118.763 150.59L65.1785 167.149L61.4928 155.262C61.3319 154.741 61.2753 154.194 61.3262 153.651C61.377 153.108 61.5344 152.581 61.7892 152.099C62.044 151.617 62.3913 151.189 62.8113 150.842C63.2313 150.494 63.7156 150.232 64.2367 150.072L109.882 135.961C110.934 135.636 112.072 135.742 113.046 136.254C114.021 136.767 114.752 137.646 115.079 138.697L118.763 150.59Z" fill="#869AA5"/>
<path d="M115.249 156.796L105.325 159.862L99.5801 141.318C99.4189 140.797 99.3621 140.249 99.4129 139.706C99.4636 139.163 99.6209 138.636 99.8758 138.154C100.131 137.672 100.478 137.245 100.898 136.897C101.318 136.549 101.803 136.288 102.324 136.127L104.307 135.514C105.359 135.188 106.498 135.294 107.472 135.807C108.446 136.321 109.176 137.2 109.502 138.252L115.249 156.796ZM81.5088 167.222L71.5875 170.288L65.841 151.748C65.68 151.227 65.6232 150.679 65.674 150.136C65.7248 149.593 65.8821 149.065 66.1369 148.583C66.3917 148.101 66.739 147.674 67.159 147.326C67.579 146.978 68.0634 146.717 68.5846 146.556L70.5669 145.943C71.6193 145.616 72.7582 145.722 73.733 146.235C74.7079 146.749 75.4388 147.629 75.7651 148.681L81.5088 167.222ZM87.0076 160.405L96.9317 157.339L97.9231 157.031L98.2284 158.021L99.7658 162.974C99.8869 163.364 99.9298 163.775 99.892 164.182C99.8541 164.589 99.7363 164.985 99.5452 165.347C99.3541 165.708 99.0935 166.029 98.7783 166.289C98.4632 166.55 98.0997 166.746 97.7087 166.866L91.7569 168.707C90.9677 168.952 90.1139 168.873 89.3826 168.488C88.6514 168.104 88.1024 167.445 87.8562 166.657L86.324 161.7L86.0155 160.71L87.0076 160.405Z" fill="#5E6871"/>
</g>
<defs>
<clipPath id="clip0">
<rect width="102" height="186" fill="white" transform="translate(-2.72485 29.8725) rotate(-16.9229)"/>
</clipPath>
</defs>
</svg>
