<svg width="22" height="16" viewBox="0 0 22 16" fill="none" xmlns="http://www.w3.org/2000/svg">
<path d="M18.6148 1.3147C17.2214 0.701831 15.7128 0.257008 14.1413 0C14.1099 0 14.0889 0.00988515 14.068 0.029655C13.8794 0.355858 13.6594 0.78091 13.5127 1.10711C11.826 0.869875 10.1393 0.869875 8.48402 1.10711C8.33735 0.771025 8.11735 0.355858 7.91829 0.029655C7.90782 0.00988515 7.87639 0 7.84496 0C6.27349 0.257008 4.77535 0.701831 3.3715 1.3147C3.36103 1.3147 3.35055 1.32458 3.34007 1.33447C0.490471 5.35764 -0.295265 9.27207 0.0923649 13.147C0.0923649 13.1667 0.102841 13.1865 0.123794 13.1964C2.00956 14.5012 3.82199 15.292 5.61347 15.8159C5.6449 15.8258 5.67633 15.8159 5.6868 15.7961C6.10586 15.2525 6.48302 14.6791 6.80779 14.0762C6.82874 14.0366 6.80779 13.9971 6.76588 13.9872C6.16872 13.7697 5.60299 13.5127 5.04774 13.2162C5.00583 13.1964 5.00583 13.1371 5.03726 13.1074C5.1525 13.0284 5.26775 12.9394 5.38299 12.8603C5.40394 12.8405 5.43537 12.8405 5.45632 12.8504C9.06023 14.4024 12.947 14.4024 16.509 12.8504C16.53 12.8405 16.5614 12.8405 16.5823 12.8603C16.6976 12.9493 16.8128 13.0284 16.9281 13.1173C16.97 13.147 16.97 13.2063 16.9176 13.226C16.3728 13.5325 15.7966 13.7796 15.1994 13.9971C15.1575 14.007 15.1471 14.0564 15.1575 14.086C15.4928 14.689 15.8699 15.2623 16.2785 15.806C16.31 15.8159 16.3414 15.8258 16.3728 15.8159C18.1748 15.292 19.9872 14.5012 21.873 13.1964C21.8939 13.1865 21.9044 13.1667 21.9044 13.147C22.3654 8.66909 21.1396 4.78431 18.6567 1.33447C18.6462 1.32458 18.6357 1.3147 18.6148 1.3147ZM7.35256 10.7845C6.27349 10.7845 5.37251 9.8454 5.37251 8.68886C5.37251 7.53232 6.25253 6.59326 7.35256 6.59326C8.46307 6.59326 9.3431 7.54221 9.33262 8.68886C9.33262 9.8454 8.4526 10.7845 7.35256 10.7845ZM14.6547 10.7845C13.5756 10.7845 12.6746 9.8454 12.6746 8.68886C12.6746 7.53232 13.5546 6.59326 14.6547 6.59326C15.7652 6.59326 16.6452 7.54221 16.6347 8.68886C16.6347 9.8454 15.7652 10.7845 14.6547 10.7845Z" fill="white"/>
</svg>
