<svg width="17" height="17" viewBox="0 0 17 17" fill="none" xmlns="http://www.w3.org/2000/svg">
<path d="M13.6495 3.77541C12.7074 3.33624 11.6874 3.01749 10.6249 2.83333C10.6037 2.83333 10.5895 2.84041 10.5753 2.85458C10.4478 3.08833 10.2991 3.39291 10.1999 3.62666C9.0595 3.45666 7.91909 3.45666 6.79992 3.62666C6.70075 3.38583 6.552 3.08833 6.41742 2.85458C6.41034 2.84041 6.38909 2.83333 6.36784 2.83333C5.30534 3.01749 4.29242 3.33624 3.34325 3.77541C3.33617 3.77541 3.32909 3.78249 3.322 3.78958C1.39534 6.67249 0.864087 9.47749 1.12617 12.2542C1.12617 12.2683 1.13325 12.2825 1.14742 12.2896C2.42242 13.2246 3.64784 13.7912 4.85909 14.1667C4.88034 14.1737 4.90159 14.1667 4.90867 14.1525C5.192 13.7629 5.447 13.3521 5.66659 12.92C5.68075 12.8917 5.66659 12.8633 5.63825 12.8562C5.2345 12.7004 4.852 12.5162 4.47659 12.3037C4.44825 12.2896 4.44825 12.2471 4.4695 12.2258C4.54742 12.1692 4.62534 12.1054 4.70325 12.0487C4.71742 12.0346 4.73867 12.0346 4.75284 12.0417C7.1895 13.1537 9.81742 13.1537 12.2258 12.0417C12.2399 12.0346 12.2612 12.0346 12.2753 12.0487C12.3533 12.1125 12.4312 12.1692 12.5091 12.2329C12.5374 12.2542 12.5374 12.2967 12.502 12.3108C12.1337 12.5304 11.7441 12.7075 11.3403 12.8633C11.312 12.8704 11.3049 12.9058 11.312 12.9271C11.5387 13.3592 11.7937 13.77 12.0699 14.1596C12.0912 14.1667 12.1124 14.1737 12.1337 14.1667C13.352 13.7912 14.5774 13.2246 15.8524 12.2896C15.8666 12.2825 15.8737 12.2683 15.8737 12.2542C16.1853 9.04541 15.3566 6.26166 13.6778 3.78958C13.6708 3.78249 13.6637 3.77541 13.6495 3.77541ZM6.03492 10.5612C5.30534 10.5612 4.69617 9.88833 4.69617 9.05958C4.69617 8.23083 5.29117 7.55791 6.03492 7.55791C6.78575 7.55791 7.38075 8.23791 7.37367 9.05958C7.37367 9.88833 6.77867 10.5612 6.03492 10.5612ZM10.972 10.5612C10.2424 10.5612 9.63325 9.88833 9.63325 9.05958C9.63325 8.23083 10.2283 7.55791 10.972 7.55791C11.7228 7.55791 12.3178 8.23791 12.3108 9.05958C12.3108 9.88833 11.7228 10.5612 10.972 10.5612Z" fill="white"/>
</svg>
