<svg width="169" height="170" viewBox="0 0 169 170" fill="none" xmlns="http://www.w3.org/2000/svg">
<g clip-path="url(#clip0)">
<path d="M360.396 -218.402V352.92H-194.81V-218.402H360.396Z" fill="#101020"/>
<path d="M117.404 60.8162C116.513 60.7914 115.569 60.8229 114.601 60.9415C108.76 61.6568 104.408 66.6157 104.419 72.4325C104.423 74.1265 104.605 76.0224 105.144 77.9097C106.773 83.624 107.276 88.6619 107.088 91.1147L112.545 94.0134C112.545 94.0134 115.071 90.4266 117.511 88.8794C119.951 87.3319 128.074 83.1959 131.29 78.9439C133.363 76.2024 133.761 70.5765 128.819 65.6561C125.8 62.6499 121.688 60.9355 117.404 60.8162Z" fill="#0F273E"/>
<path d="M104.505 97.3552L109.434 99.9883L106.226 104.016L102.94 102.54L104.505 97.3552Z" fill="#455A63"/>
<path d="M104.745 97.5174C104.701 97.502 105.19 96.056 105.837 94.288C106.484 92.5193 107.044 91.0991 107.088 91.1149C107.131 91.1306 106.643 92.576 105.995 94.3443C105.348 96.1126 104.788 97.5331 104.745 97.5174Z" fill="#253138"/>
<path d="M109.124 99.7905C109.084 99.767 109.856 98.4011 110.848 96.74C111.841 95.0779 112.678 93.7501 112.718 93.7732C112.758 93.7967 111.986 95.1626 110.994 96.8241C110.001 98.4855 109.164 99.8136 109.124 99.7905Z" fill="#253138"/>
<path d="M119.047 60.969C118.826 60.9814 116.114 64.1193 114.914 66.2431C110.877 73.3881 110.696 80.3417 109.576 88.4498C109.415 89.6081 108.833 92.1057 108.844 92.0474C109.441 92.5105 111.449 93.4315 111.449 93.4315C111.449 93.4315 113.341 91.173 114.094 90.0372C117.106 85.4891 120.376 81.9438 122.955 77.1421C125.534 72.3407 128.015 68.0828 125.629 63.1853C125.629 63.1853 121.496 60.8337 119.047 60.969Z" fill="#80B7C8"/>
<path d="M131.311 79.6626C131.307 79.6639 131.283 79.611 131.24 79.5081C131.195 79.4063 131.143 79.2498 131.052 79.0558C130.874 78.6655 130.583 78.1047 130.099 77.4718C129.614 76.8446 128.937 76.136 128.006 75.5406C127.089 74.9322 125.909 74.4498 124.571 74.2843L124.538 74.2802L124.519 74.2541C123.892 73.4185 123.173 72.5558 122.317 71.7558C121.462 70.9577 120.461 70.2233 119.31 69.7097C118.161 69.2031 116.924 68.9783 115.757 69.04C114.589 69.0983 113.494 69.4651 112.647 70.0642L112.598 70.0994L112.553 70.0595C111.54 69.1787 110.326 68.7234 109.232 68.6007C108.13 68.4754 107.153 68.6758 106.408 68.9566C105.657 69.239 105.128 69.5985 104.786 69.8588C104.616 69.9908 104.488 70.098 104.406 70.1734C104.322 70.2474 104.277 70.2843 104.274 70.2816C104.271 70.2786 104.31 70.236 104.389 70.156C104.467 70.0746 104.589 69.961 104.756 69.8223C105.091 69.5482 105.618 69.1723 106.375 68.8735C107.126 68.5766 108.12 68.3599 109.246 68.4778C110.364 68.5927 111.608 69.0484 112.653 69.9472L112.559 69.9426C113.428 69.3211 114.553 68.9405 115.748 68.8782C116.943 68.8122 118.206 69.0403 119.379 69.5579C120.552 70.0809 121.567 70.8284 122.429 71.6378C123.293 72.4493 124.014 73.3214 124.641 74.1653L124.589 74.1358C125.953 74.3114 127.15 74.8109 128.075 75.4371C129.015 76.0496 129.692 76.7766 130.172 77.4182C130.65 78.0658 130.931 78.6387 131.096 79.0371C131.181 79.2354 131.225 79.3956 131.263 79.5004C131.299 79.6063 131.315 79.6612 131.311 79.6626Z" fill="#253138"/>
<path d="M121.168 86.7824C121.135 86.7938 121.141 86.295 120.697 85.6105C120.473 85.2785 120.139 84.9009 119.65 84.6168C119.172 84.3243 118.533 84.128 117.844 84.1936L117.776 84.2003L117.765 84.1333C117.656 83.4405 117.366 82.7034 116.87 82.0501C116.377 81.4004 115.687 80.8202 114.846 80.4969C114.155 80.2251 113.42 80.13 112.729 80.1762C112.037 80.2251 111.391 80.4195 110.844 80.7029L110.792 80.7297L110.752 80.6872C110.206 80.1096 109.503 79.7852 108.857 79.6727C108.209 79.5434 107.618 79.6083 107.158 79.7256C106.225 79.9769 105.828 80.4221 105.809 80.387C105.807 80.384 105.831 80.3595 105.882 80.3143C105.934 80.2717 106.005 80.1997 106.113 80.1253C106.325 79.9732 106.663 79.7762 107.134 79.6392C107.602 79.5065 108.209 79.4271 108.88 79.5504C109.548 79.6569 110.285 79.9836 110.864 80.586L110.772 80.5706C111.336 80.2727 112.002 80.068 112.717 80.0147C113.43 79.9635 114.192 80.0606 114.908 80.3421C115.781 80.6784 116.495 81.2812 117 81.9549C117.509 82.632 117.802 83.3959 117.908 84.1122L117.829 84.0519C118.558 83.9896 119.222 84.2064 119.712 84.5173C120.213 84.8208 120.549 85.2182 120.768 85.5663C120.987 85.9197 121.083 86.234 121.13 86.4484C121.153 86.5556 121.157 86.6407 121.165 86.6967C121.171 86.753 121.172 86.7821 121.168 86.7824Z" fill="#253138"/>
<path d="M108.482 101.257C108.469 101.266 108.428 101.19 108.301 101.138C108.174 101.086 107.968 101.078 107.724 101.156C107.599 101.188 107.458 101.234 107.288 101.235C107.119 101.237 106.931 101.156 106.801 101.022C106.539 100.753 106.44 100.364 106.192 100.095C106.07 99.9632 105.909 99.8952 105.738 99.9056C105.567 99.9119 105.396 99.9679 105.225 100.007C105.055 100.047 104.874 100.073 104.708 100.034C104.543 99.9994 104.408 99.919 104.304 99.8298C104.095 99.6486 104.003 99.4352 103.98 99.2884C103.954 99.1397 103.978 99.0576 103.987 99.0586C104.001 99.0589 104 99.1403 104.043 99.2727C104.083 99.404 104.184 99.589 104.379 99.7387C104.476 99.8121 104.597 99.8761 104.735 99.8989C104.871 99.925 105.025 99.9009 105.187 99.858C105.351 99.8178 105.526 99.7541 105.732 99.7424C105.939 99.7243 106.17 99.8188 106.315 99.9803C106.602 100.303 106.691 100.685 106.913 100.915C107.02 101.029 107.153 101.092 107.292 101.096C107.431 101.102 107.568 101.068 107.696 101.041C107.954 100.975 108.195 100.999 108.33 101.08C108.468 101.161 108.489 101.256 108.482 101.257Z" fill="#253138"/>
<path d="M109.047 100.475C109.025 100.515 107.948 99.9901 106.642 99.3013C105.336 98.6125 104.294 98.0215 104.317 97.981C104.338 97.9404 105.415 98.4657 106.722 99.1546C108.028 99.8431 109.069 100.434 109.047 100.475Z" fill="#253138"/>
<path d="M108.068 101.704C108.071 101.716 107.999 101.737 107.88 101.792C107.82 101.818 107.751 101.859 107.657 101.896C107.563 101.935 107.442 101.949 107.318 101.94C107.071 101.923 106.768 101.847 106.505 101.63C106.375 101.525 106.265 101.372 106.196 101.209C106.123 101.051 106.066 100.887 105.957 100.771C105.731 100.533 105.367 100.507 105.064 100.518C104.753 100.529 104.446 100.538 104.207 100.437C103.97 100.339 103.827 100.174 103.774 100.044C103.718 99.9128 103.738 99.832 103.746 99.833C103.761 99.8314 103.766 99.9074 103.832 100.015C103.896 100.12 104.036 100.254 104.249 100.327C104.462 100.402 104.741 100.386 105.058 100.365C105.367 100.349 105.785 100.354 106.081 100.659C106.222 100.812 106.279 100.994 106.346 101.143C106.41 101.296 106.495 101.418 106.607 101.515C106.829 101.709 107.103 101.794 107.328 101.823C107.557 101.864 107.721 101.77 107.857 101.731C107.989 101.693 108.066 101.694 108.068 101.704Z" fill="#253138"/>
<path d="M108.369 65.8998C103.498 62.3063 102.532 55.8902 102.872 50.1608C102.928 49.2043 102.848 48.1916 103.327 47.366C103.807 46.5407 104.892 46.0001 105.746 46.4306C106.454 46.7879 106.745 47.6248 107.128 48.3213C107.639 49.2484 108.415 50.0262 109.337 50.537C109.943 50.8727 110.699 51.09 111.313 50.7772C112.157 50.3478 112.283 49.2101 112.301 48.2574C112.334 46.4821 112.367 44.7072 112.4 42.9323C112.418 41.98 112.439 41.0076 112.76 40.1133C113.081 39.2186 113.761 38.4 114.68 38.1749C115.6 37.9499 116.715 38.5075 116.884 39.4457C116.955 39.8363 116.865 40.2363 116.882 40.6323C116.899 41.0284 117.073 41.4717 117.449 41.5936C117.829 41.7173 118.219 41.4592 118.513 41.1898C119.527 40.2593 120.23 39.042 120.888 37.8302C121.547 36.6179 122.188 35.3764 123.112 34.3558C124.037 33.3354 125.301 32.5434 126.677 32.5096C128.053 32.4756 129.495 33.3632 129.809 34.7127C130.124 36.0665 129.301 37.4036 128.415 38.4631C127.101 40.0355 125.559 41.4139 123.851 42.5413C123.543 42.745 123.21 42.9648 123.086 43.314C122.861 43.9424 123.451 44.5919 124.078 44.8202C124.787 45.0791 125.564 45.0301 126.31 45.1409C127.056 45.252 127.858 45.6047 128.124 46.3154C128.492 47.3011 127.647 48.2953 126.824 48.938C125.174 50.2255 123.303 51.2242 121.317 51.8782C120.605 52.1123 119.857 52.3139 119.276 52.7881C118.694 53.2624 118.329 54.1073 118.657 54.7887C118.984 55.4712 119.86 55.7136 120.603 55.6007C121.345 55.4878 122.017 55.1102 122.728 54.8684C124.059 54.4161 125.759 54.5598 126.575 55.7172C127.112 56.4781 127.134 57.5149 126.832 58.3922C126.529 59.2694 125.941 60.0148 125.319 60.6997C123.144 63.0939 120.39 64.9901 117.306 65.9466C114.221 66.9029 111.381 67.0986 108.369 65.8998Z" fill="#F5F5F5"/>
<path d="M109.285 66.2576C109.551 63.9927 109.028 65.2084 109.957 62.3435C110.879 59.4765 112.153 56.4188 113.597 53.2667C113.961 52.4801 114.32 51.7026 114.675 50.9369C115.03 50.1729 115.382 49.4156 115.774 48.6961C116.549 47.2537 117.407 45.926 118.26 44.6914C119.113 43.4559 119.969 42.3148 120.776 41.2539C121.587 40.194 122.36 39.2203 123.104 38.3633C124.587 36.6425 125.947 35.3989 126.915 34.5836C127.399 34.1737 127.785 33.8686 128.049 33.6651C128.176 33.5687 128.276 33.4926 128.351 33.4355C128.42 33.3849 128.456 33.3598 128.458 33.3622C128.46 33.3648 128.427 33.3944 128.362 33.4498C128.29 33.5104 128.194 33.5905 128.071 33.6932C127.815 33.9054 127.436 34.2192 126.96 34.6361C126.006 35.4665 124.665 36.7196 123.199 38.4457C122.463 39.3055 121.696 40.281 120.892 41.3436C120.091 42.4078 119.242 43.5503 118.394 44.785C117.546 46.0188 116.695 47.3435 115.926 48.7793C115.538 49.4955 115.189 50.2464 114.834 51.0124C114.48 51.7781 114.121 52.5551 113.757 53.3416C112.315 56.491 111.039 59.5394 110.11 62.3954C109.177 65.2483 109.69 64.0185 109.409 66.2737" fill="#DFDFDF"/>
<path d="M115.832 48.7022C115.821 48.7036 115.792 48.5588 115.75 48.2943C115.706 48.0304 115.656 47.6463 115.601 47.1712C115.49 46.2212 115.382 44.9043 115.269 43.452C115.156 41.999 115.029 40.6881 114.904 39.7422C114.843 39.2694 114.79 38.887 114.749 38.6232C114.711 38.359 114.695 38.211 114.707 38.2086C114.719 38.2065 114.757 38.3498 114.816 38.6109C114.878 38.8716 114.95 39.2525 115.026 39.7249C115.184 40.6693 115.33 41.9844 115.444 43.4387C115.552 44.8719 115.65 46.1685 115.725 47.1594C115.761 47.6068 115.793 47.9837 115.818 48.2863C115.838 48.5525 115.845 48.7007 115.832 48.7022Z" fill="#DFDFDF"/>
<path d="M128.248 46.7731C128.248 46.7853 128.071 46.8009 127.753 46.8172C127.435 46.8358 126.974 46.8596 126.407 46.9077C125.271 46.9943 123.706 47.1696 121.989 47.4381C120.272 47.7094 118.729 48.021 117.62 48.2787C117.063 48.4037 116.617 48.5169 116.307 48.5932C115.998 48.6708 115.826 48.7081 115.822 48.6964C115.818 48.6844 115.985 48.6245 116.289 48.5261C116.593 48.4292 117.036 48.2973 117.59 48.156C118.694 47.8663 120.239 47.5337 121.962 47.2613C123.684 46.9921 125.256 46.8367 126.398 46.7817C126.969 46.7499 127.432 46.7445 127.751 46.7477C128.071 46.7526 128.247 46.7605 128.248 46.7731Z" fill="#DFDFDF"/>
<path d="M110.052 62.1338C110.046 62.136 110.019 62.0841 109.971 61.9822C109.918 61.861 109.852 61.713 109.773 61.5341C109.602 61.1437 109.37 60.5727 109.093 59.8639C108.536 58.4464 107.83 56.4644 107.079 54.2672C106.329 52.0692 105.641 50.0835 105.116 48.6568C104.858 47.9631 104.645 47.3926 104.488 46.9684C104.42 46.7843 104.365 46.6326 104.32 46.5077C104.283 46.4019 104.266 46.3454 104.272 46.3425C104.278 46.3406 104.305 46.3925 104.353 46.4945C104.406 46.6157 104.471 46.7633 104.551 46.9425C104.722 47.3326 104.954 47.9035 105.231 48.6124C105.788 50.0301 106.494 52.012 107.245 54.21C107.995 56.4074 108.682 58.3928 109.208 59.8202C109.466 60.5135 109.679 61.0844 109.836 61.5082C109.904 61.6923 109.959 61.8444 110.004 61.9686C110.041 62.0748 110.058 62.1316 110.052 62.1338Z" fill="#DFDFDF"/>
<path d="M126.62 57.3561C126.621 57.3623 126.564 57.3833 126.455 57.4181C126.325 57.4573 126.167 57.5049 125.974 57.5629C125.53 57.6919 124.929 57.8659 124.199 58.0771C122.701 58.5116 120.639 59.1355 118.362 59.828C116.083 60.5213 114.013 61.1265 112.506 61.5302C111.752 61.7324 111.141 61.8897 110.715 61.9899C110.519 62.0348 110.357 62.0716 110.226 62.1023C110.113 62.126 110.053 62.1354 110.052 62.1295C110.051 62.1235 110.107 62.1023 110.216 62.0673C110.346 62.0284 110.505 61.9808 110.698 61.9227C111.142 61.7936 111.742 61.6201 112.472 61.4087C113.97 60.9741 116.032 60.3501 118.31 59.6571C120.588 58.9646 122.657 58.3589 124.166 57.9554C124.92 57.7532 125.531 57.596 125.956 57.4957C126.152 57.4508 126.314 57.4133 126.446 57.3833C126.558 57.3597 126.618 57.3502 126.62 57.3561Z" fill="#DFDFDF"/>
<path d="M87.03 121.582L105.957 122.382L106.414 123.472L94.0091 143.372L71.6157 142.727L87.03 121.582Z" fill="#253138"/>
<path d="M70.7661 140.787L93.2945 142.059L105.061 124.011L96.7988 124.675L75.8863 131.953L70.7661 140.787Z" fill="#DFDFDF"/>
<path d="M67.6017 139.448L88.289 139.771C87.4297 137.155 89.4565 133.471 92.2377 132.232C94.0808 131.411 97.5498 130.346 99.3393 129.439C102.74 127.715 105.813 124.45 105.545 121.648L97.0482 121.38L86.204 120.966C85.2969 123.625 83.3573 125.367 80.4089 126.414C77.7699 127.352 74.7666 127.35 72.1928 128.415C68.0498 130.13 66.0593 135.686 67.6017 139.448Z" fill="#EBEBEB"/>
<path d="M67.602 139.449C67.602 139.449 67.5823 139.405 67.5501 139.317C67.5166 139.224 67.4695 139.093 67.4084 138.922C67.3362 138.751 67.2942 138.525 67.2322 138.26C67.1579 137.997 67.1332 137.682 67.0895 137.329C67.0373 136.622 67.0444 135.738 67.2539 134.73C67.4644 133.726 67.864 132.596 68.5806 131.485C68.7664 131.212 68.9447 130.924 69.1762 130.663C69.2881 130.53 69.3931 130.389 69.5148 130.259C69.6406 130.133 69.768 130.005 69.8969 129.876C70.0209 129.741 70.1636 129.624 70.3104 129.509C70.4568 129.393 70.5985 129.268 70.7534 129.157C71.0778 128.956 71.3924 128.72 71.7609 128.563C73.1941 127.848 74.9069 127.547 76.6899 127.228C77.5841 127.067 78.5048 126.899 79.4292 126.647C80.3492 126.389 81.2766 126.045 82.1562 125.563C82.5983 125.327 83.0254 125.051 83.4291 124.738C83.8362 124.428 84.2172 124.077 84.5586 123.684C85.2538 122.907 85.7775 121.962 86.1304 120.941L86.1494 120.887L86.2073 120.889C89.0873 120.998 92.1099 121.112 95.2427 121.23C98.3755 121.351 101.62 121.435 104.941 121.545C105.146 121.552 105.349 121.559 105.547 121.565L105.622 121.567L105.629 121.64C105.686 122.288 105.566 122.932 105.355 123.53C105.259 123.834 105.111 124.116 104.976 124.401C104.816 124.673 104.668 124.951 104.482 125.205C103.776 126.246 102.872 127.118 101.919 127.883C100.957 128.643 99.9128 129.274 98.8257 129.772C97.7345 130.256 96.6295 130.652 95.5471 131.047C94.4655 131.443 93.3957 131.818 92.3797 132.255C91.8815 132.484 91.4028 132.746 90.9879 133.09C90.7683 133.245 90.5845 133.441 90.3839 133.615C90.2069 133.812 90.0096 133.992 89.8527 134.202C89.1846 135.013 88.6825 135.931 88.4059 136.89C88.1131 137.842 88.0802 138.85 88.3547 139.75L88.3825 139.841L88.288 139.839C82.022 139.729 76.8523 139.639 73.2432 139.575C71.4446 139.539 70.0358 139.511 69.0711 139.492C68.5949 139.481 68.2291 139.471 67.9766 139.465C67.7294 139.458 67.602 139.449 67.602 139.449C67.602 139.449 67.7294 139.444 67.9769 139.444C68.2294 139.446 68.5952 139.448 69.0718 139.451C70.0369 139.462 71.4456 139.478 73.2446 139.498C76.854 139.547 82.024 139.618 88.2903 139.703L88.2239 139.792C87.9365 138.86 87.9707 137.823 88.2673 136.85C88.548 135.87 89.0571 134.935 89.7361 134.109C89.8964 133.894 90.0961 133.71 90.2767 133.509C90.4811 133.331 90.6683 133.131 90.893 132.971C91.3154 132.62 91.8086 132.349 92.3167 132.114C93.3414 131.672 94.4105 131.296 95.4919 130.899C96.5732 130.503 97.6766 130.106 98.7579 129.624C99.8308 129.132 100.864 128.507 101.815 127.755C102.758 126.997 103.65 126.135 104.343 125.113C104.526 124.863 104.671 124.591 104.827 124.324C104.959 124.045 105.104 123.77 105.196 123.475C105.401 122.894 105.515 122.274 105.461 121.656L105.542 121.731C105.344 121.725 105.14 121.718 104.936 121.712C101.615 121.601 98.3701 121.517 95.237 121.392C92.1038 121.271 89.0812 121.154 86.2012 121.043L86.2778 120.99C85.9175 122.027 85.3823 122.99 84.6718 123.781C84.323 124.182 83.9342 124.539 83.5196 124.853C83.1084 125.17 82.6742 125.449 82.2257 125.688C81.3329 126.175 80.3963 126.521 79.4658 126.779C78.5326 127.03 77.6082 127.197 76.713 127.355C74.9286 127.669 73.2259 127.965 71.8114 128.664C71.448 128.817 71.1382 129.047 70.8172 129.244C70.664 129.353 70.5236 129.476 70.3785 129.589C70.2335 129.703 70.0921 129.818 69.9691 129.95C69.8413 130.077 69.7148 130.202 69.5897 130.326C69.4694 130.454 69.3647 130.594 69.2531 130.725C69.0233 130.981 68.8454 131.266 68.6599 131.535C67.9454 132.631 67.5413 133.75 67.3254 134.745C67.1105 135.744 67.0956 136.622 67.1396 137.326C67.1793 137.677 67.1996 137.99 67.2698 138.253C67.3271 138.517 67.365 138.743 67.4332 138.915C67.4888 139.087 67.5318 139.218 67.5623 139.312C67.5908 139.401 67.602 139.449 67.602 139.449Z" fill="#253138"/>
<path d="M92.0158 121.297C92.0009 121.293 92.0429 121.166 92.0626 120.932C92.0805 120.7 92.0653 120.351 91.8998 119.966C91.7405 119.586 91.4236 119.164 90.9219 118.931C90.428 118.695 89.7755 118.646 89.1789 118.869C88.5779 119.086 88.145 119.571 87.9196 120.067C87.685 120.567 87.6532 121.082 87.7203 121.491C87.7881 121.904 87.9464 122.214 88.0738 122.411C88.2023 122.61 88.2976 122.704 88.2871 122.714C88.2813 122.72 88.1691 122.642 88.0203 122.449C87.8721 122.257 87.6898 121.943 87.603 121.512C87.5172 121.085 87.5369 120.537 87.7779 120.004C88.0084 119.475 88.4691 118.949 89.1196 118.713C89.7619 118.474 90.4606 118.531 90.9904 118.793C91.529 119.055 91.8571 119.517 92.0104 119.922C92.17 120.335 92.1666 120.701 92.1276 120.94C92.1076 121.059 92.0829 121.151 92.0585 121.21C92.0361 121.269 92.0215 121.299 92.0158 121.297Z" fill="#253138"/>
<path d="M95.258 121.297C95.2427 121.293 95.2848 121.166 95.3048 120.932C95.3224 120.7 95.3072 120.351 95.1421 119.966C94.9828 119.586 94.6655 119.164 94.1638 118.931C93.6699 118.695 93.0177 118.646 92.4208 118.869C91.8198 119.086 91.3869 119.571 91.1615 120.067C90.9269 120.567 90.895 121.082 90.9625 121.491C91.0303 121.904 91.1886 122.214 91.316 122.411C91.4442 122.61 91.5398 122.704 91.5293 122.714C91.5235 122.72 91.4113 122.642 91.2621 122.449C91.114 122.257 90.9316 121.943 90.8452 121.512C90.7594 121.085 90.7791 120.537 91.0198 120.004C91.2503 119.475 91.7113 118.949 92.3614 118.713C93.0038 118.474 93.7028 118.531 94.2323 118.793C94.7712 119.055 95.0994 119.517 95.2526 119.922C95.4119 120.335 95.4085 120.701 95.3695 120.94C95.3495 121.059 95.3248 121.151 95.3007 121.21C95.278 121.269 95.2634 121.299 95.258 121.297Z" fill="#253138"/>
<path d="M97.7208 121.464C97.7055 121.46 97.7401 121.331 97.7459 121.096C97.7509 120.863 97.715 120.516 97.5286 120.141C97.3472 119.77 97.0072 119.367 96.493 119.162C95.9866 118.955 95.3317 118.942 94.7486 119.197C94.1615 119.448 93.7571 119.956 93.5605 120.464C93.3547 120.976 93.3524 121.492 93.4432 121.897C93.5344 122.306 93.71 122.607 93.8486 122.796C93.988 122.988 94.0886 123.076 94.0788 123.087C94.0734 123.093 93.9568 123.021 93.7971 122.837C93.6381 122.654 93.4381 122.35 93.3269 121.924C93.2168 121.504 93.2053 120.955 93.4151 120.41C93.6151 119.868 94.0452 119.318 94.6808 119.046C95.3086 118.771 96.0093 118.789 96.553 119.02C97.1062 119.251 97.4601 119.694 97.6364 120.091C97.8191 120.493 97.837 120.86 97.812 121.1C97.7984 121.221 97.7794 121.314 97.7581 121.374C97.7391 121.435 97.7265 121.465 97.7208 121.464Z" fill="#253138"/>
<path d="M100.361 121.613C100.345 121.61 100.373 121.479 100.367 121.244C100.359 121.011 100.305 120.666 100.098 120.302C99.8976 119.941 99.5356 119.556 99.0115 119.378C98.4946 119.198 97.8404 119.219 97.2719 119.505C96.6987 119.787 96.3218 120.314 96.1526 120.832C95.975 121.354 96.0004 121.87 96.1126 122.269C96.2255 122.673 96.417 122.963 96.5658 123.146C96.7153 123.33 96.8207 123.413 96.8109 123.424C96.8065 123.431 96.6862 123.364 96.5163 123.188C96.3482 123.014 96.1319 122.722 95.9984 122.303C95.8655 121.888 95.8245 121.342 96.0048 120.785C96.1753 120.234 96.5753 119.662 97.1956 119.357C97.8078 119.05 98.5088 119.031 99.0641 119.234C99.6288 119.436 100.006 119.86 100.203 120.247C100.407 120.639 100.445 121.004 100.432 121.244C100.425 121.366 100.411 121.459 100.394 121.521C100.378 121.582 100.366 121.614 100.361 121.613Z" fill="#253138"/>
<path d="M103.006 121.551C102.99 121.549 103.014 121.417 103.001 121.183C102.987 120.95 102.923 120.607 102.706 120.248C102.495 119.893 102.123 119.518 101.593 119.355C101.071 119.189 100.418 119.229 99.8582 119.531C99.2931 119.828 98.9314 120.366 98.7772 120.888C98.6141 121.415 98.6541 121.929 98.7775 122.326C98.9023 122.726 99.1019 123.011 99.2555 123.189C99.4104 123.369 99.5182 123.449 99.509 123.46C99.5043 123.467 99.3823 123.405 99.2077 123.233C99.0345 123.064 98.8101 122.777 98.6643 122.362C98.5202 121.951 98.464 121.406 98.628 120.845C98.783 120.289 99.1663 119.706 99.7778 119.384C100.381 119.06 101.081 119.022 101.642 119.21C102.212 119.395 102.602 119.809 102.809 120.19C103.025 120.577 103.072 120.94 103.067 121.181C103.063 121.303 103.052 121.396 103.036 121.458C103.021 121.52 103.011 121.552 103.006 121.551Z" fill="#253138"/>
<path d="M105.235 121.845C105.219 121.842 105.249 121.712 105.245 121.476C105.24 121.244 105.19 120.898 104.988 120.531C104.791 120.168 104.434 119.779 103.912 119.595C103.397 119.409 102.743 119.423 102.171 119.702C101.595 119.976 101.211 120.5 101.036 121.015C100.852 121.535 100.871 122.051 100.979 122.452C101.087 122.857 101.275 123.15 101.422 123.334C101.569 123.519 101.673 123.604 101.664 123.615C101.659 123.621 101.539 123.554 101.372 123.376C101.205 123.2 100.993 122.904 100.864 122.484C100.736 122.068 100.702 121.521 100.889 120.967C101.066 120.418 101.473 119.85 102.097 119.552C102.712 119.252 103.414 119.242 103.967 119.451C104.529 119.66 104.901 120.088 105.093 120.477C105.293 120.872 105.326 121.237 105.311 121.477C105.302 121.599 105.287 121.692 105.269 121.754C105.252 121.815 105.24 121.846 105.235 121.845Z" fill="#253138"/>
<path d="M47.6677 80.3775C47.6677 80.3775 45.5104 81.6903 49.0153 86.1225C52.5206 90.5543 54.7563 92.6526 54.7563 92.6526C54.7563 92.6526 55.4315 93.7079 54.497 94.0712C53.5626 94.4349 51.3605 94.507 51.1612 95.7659C50.9547 97.0714 52.0767 98.0505 54.0887 98.712C56.1009 99.3735 60.4559 100.983 60.8494 101.13C61.2353 101.274 61.6857 101.739 61.0898 102.088C60.4935 102.437 55.7892 103.855 56.6078 106.028C57.4264 108.2 63.3357 109.132 63.9795 109.245C64.6234 109.36 64.8166 109.584 64.8324 109.919C64.8479 110.254 63.2213 110.583 61.9 111.041C60.5788 111.499 59.1285 112.259 59.7066 113.473C60.2848 114.688 64.0829 116.744 72.168 115.992L75.8908 115.401L77.2907 111.917C79.8276 104.279 78.6466 100.156 77.579 99.3283C76.5115 98.5001 75.4403 99.7309 74.6961 100.905C73.9515 102.078 73.2662 103.576 72.94 103.486C72.6132 103.396 72.4356 103.16 72.4663 102.513C72.4969 101.866 72.8928 95.9556 70.9352 94.6822C68.9774 93.4096 66.5356 97.6352 66.0598 98.1334C65.5839 98.6316 65.2259 98.0933 65.1694 97.6886C65.1122 97.2762 64.4949 92.7148 64.2906 90.6253C64.0863 88.5358 63.371 87.2355 62.0396 87.1446C60.7556 87.0573 60.1952 89.1671 59.6294 89.9882C59.064 90.8096 58.1745 89.9231 58.1745 89.9231C58.1745 89.9231 56.6052 87.2988 53.0192 82.9308C49.4338 78.5624 47.626 80.4073 47.626 80.4073" fill="#EBEBEB"/>
<path d="M76.2477 116.221C73.6273 113.003 69.0675 107.207 65.1265 102.25C61.187 97.296 57.6156 92.8131 55.0124 89.5828C53.711 87.9714 52.657 86.6665 51.9255 85.7602C51.5636 85.3116 51.2815 84.9614 51.0867 84.7197C50.9942 84.6028 50.9222 84.5123 50.8704 84.4473C50.8225 84.3857 50.8005 84.3523 50.8005 84.3523C50.8005 84.3523 50.8289 84.3803 50.8798 84.44C50.9339 84.5029 51.0084 84.5913 51.1048 84.705C51.3035 84.9434 51.5914 85.2889 51.9608 85.7315C52.7027 86.6234 53.7672 87.9221 55.0766 89.5313C57.6967 92.7493 61.2788 97.2239 65.2183 102.179C69.1593 107.136 73.7087 112.939 76.3119 116.17" fill="#DFDFDF"/>
<path d="M54.2374 95.7939C54.2387 95.7861 54.3356 95.7943 54.5099 95.8155C54.6845 95.8364 54.9354 95.874 55.2454 95.923C55.865 96.0222 56.7172 96.1812 57.655 96.3734C58.5783 96.566 59.4141 96.7404 60.053 96.8736C60.341 96.9318 60.5845 96.9813 60.7799 97.0206C60.9519 97.0547 61.0468 97.0772 61.0456 97.0854C61.0443 97.0932 60.9475 97.0856 60.7729 97.0654C60.5983 97.0442 60.347 97.0069 60.0376 96.9546C59.4189 96.849 58.5685 96.6794 57.6317 96.4872C56.7067 96.3007 55.8706 96.1327 55.231 96.0036C54.942 95.9468 54.6982 95.899 54.5026 95.8601C54.3309 95.8249 54.2362 95.8017 54.2374 95.7939Z" fill="#DFDFDF"/>
<path d="M61.2622 96.7953C61.2301 96.7903 61.4773 95.0392 61.8139 92.8848C62.1505 90.7292 62.4492 88.9867 62.4813 88.9917C62.513 88.9967 62.2661 90.7475 61.9296 92.9028C61.5926 95.0571 61.2939 96.8003 61.2622 96.7953Z" fill="#DFDFDF"/>
<path d="M66.966 104.662C66.9587 104.658 66.9968 104.568 67.0712 104.407C67.1572 104.225 67.2644 103.998 67.3915 103.729C67.661 103.156 68.0296 102.364 68.4041 101.474C68.7807 100.585 69.093 99.7697 69.3146 99.1767C69.4195 98.8981 69.5072 98.6631 69.5776 98.4747C69.6409 98.3095 69.6791 98.2188 69.687 98.2214C69.6946 98.224 69.6706 98.3193 69.6212 98.4892C69.571 98.6594 69.4943 98.9042 69.3928 99.2044C69.1913 99.8051 68.8898 100.628 68.5124 101.519C68.1366 102.411 67.755 103.201 67.4661 103.765C67.3201 104.047 67.2 104.274 67.112 104.428C67.0247 104.582 66.9733 104.666 66.966 104.662Z" fill="#DFDFDF"/>
<path d="M60.4108 105.143C60.41 105.135 60.5008 105.119 60.6646 105.098C60.8539 105.076 61.0867 105.05 61.3609 105.019C61.9492 104.958 62.7631 104.881 63.6625 104.804C64.562 104.727 65.377 104.664 65.9671 104.624C66.2429 104.607 66.4764 104.594 66.6669 104.583C66.8322 104.575 66.9239 104.575 66.9247 104.583C66.9251 104.591 66.835 104.607 66.6705 104.628C66.4813 104.649 66.2485 104.676 65.9745 104.706C65.3859 104.767 64.5723 104.844 63.6729 104.921C62.7732 104.999 61.9585 105.062 61.3683 105.102C61.0929 105.118 60.8587 105.132 60.6689 105.143C60.5033 105.151 60.4116 105.15 60.4108 105.143Z" fill="#DFDFDF"/>
<path d="M64.5543 112.72C64.5535 112.712 64.6692 112.693 64.8796 112.666C65.112 112.639 65.4122 112.604 65.7717 112.562C66.5255 112.48 67.5673 112.374 68.7188 112.264C69.8706 112.154 70.9145 112.061 71.6702 112C72.0316 111.973 72.3321 111.95 72.5657 111.933C72.7772 111.919 72.8948 111.916 72.8956 111.924C72.8964 111.932 72.7803 111.951 72.57 111.978C72.338 112.005 72.0381 112.04 71.6782 112.082C70.9244 112.165 69.8827 112.27 68.7305 112.381C67.579 112.49 66.5351 112.583 65.7795 112.645C65.4184 112.672 65.1178 112.694 64.8845 112.711C64.6727 112.725 64.5551 112.728 64.5543 112.72Z" fill="#DFDFDF"/>
<path d="M72.7015 111.887C72.6942 111.884 72.739 111.767 72.8267 111.561C72.9232 111.335 73.0492 111.041 73.2012 110.686C73.5168 109.948 73.9489 108.926 74.3931 107.785C74.8397 106.644 75.216 105.601 75.4835 104.844C75.6123 104.48 75.7189 104.178 75.8008 103.947C75.8767 103.735 75.9223 103.62 75.9298 103.622C75.9374 103.624 75.9067 103.745 75.8443 103.961C75.7815 104.177 75.6862 104.488 75.5622 104.87C75.3145 105.634 74.9497 106.684 74.5025 107.827C74.0571 108.97 73.6123 109.989 73.2769 110.719C73.1082 111.084 72.969 111.378 72.8681 111.579C72.7675 111.781 72.7088 111.89 72.7015 111.887Z" fill="#DFDFDF"/>
<path d="M32.5615 76.9833L33.9093 79.1168C33.9093 79.1168 39.6587 73.888 45.3619 75.3661C45.3619 75.3661 40.2363 71.0703 32.5615 76.9833Z" fill="#0F273E"/>
<path d="M45.3618 75.3665C45.3618 75.3665 49.5821 70.8372 55.7701 71.8701L57.4578 72.1214L56.9189 71.1581C56.9189 71.1581 46.1564 67.5146 45.3618 75.3665Z" fill="#0F273E"/>
<path d="M36.4543 60.0931C36.4543 60.0931 28.0013 58.6554 22.4563 61.6205L31.2598 78.0033C31.2598 78.0033 38.4665 71.1378 45.3616 75.3659L36.4543 60.0931Z" fill="#F5F5F5"/>
<path d="M36.4543 60.0936C36.4557 60.0919 36.4709 60.1144 36.4994 60.1603C36.5312 60.2119 36.5723 60.2795 36.6258 60.3667C36.7397 60.557 36.9028 60.829 37.1129 61.1808C37.5404 61.9038 38.1597 62.9528 38.9454 64.2819C40.52 66.9665 42.7582 70.7812 45.4267 75.3296C45.447 75.3648 45.4348 75.4097 45.3995 75.4301C45.3748 75.4442 45.345 75.4425 45.3222 75.4288C44.3663 74.8488 43.2681 74.4086 42.082 74.1995C41.4878 74.1027 40.8752 74.0618 40.2546 74.0742C39.6342 74.099 39.0075 74.1764 38.3827 74.3068C35.8858 74.8545 33.4605 76.1947 31.3903 77.9972L31.3185 78.0638C31.2849 78.0957 31.2317 78.0947 31.1992 78.0618C31.1941 78.0565 31.189 78.0491 31.1856 78.0427C27.9152 71.9454 24.8837 66.2934 22.3946 61.6528C22.3766 61.6207 22.3885 61.5798 22.4214 61.5617L22.4231 61.5607C24.3617 60.57 26.3288 60.1405 28.0575 59.9123C29.7948 59.6909 31.3198 59.6835 32.5666 59.7187C33.8147 59.7596 34.7879 59.8584 35.4479 59.9391C35.778 59.9787 36.0299 60.0169 36.1991 60.0447C36.2791 60.0588 36.3424 60.0698 36.3909 60.0782C36.4346 60.0872 36.4553 60.0923 36.4543 60.0936C36.4533 60.0949 36.4306 60.0933 36.3882 60.0882C36.3394 60.0825 36.2763 60.0748 36.1957 60.0651C36.0258 60.0443 35.7733 60.0129 35.4431 59.9797C34.7825 59.9123 33.8096 59.8262 32.5646 59.7971C31.3205 59.7736 29.7999 59.7921 28.0721 60.0222C26.3528 60.2584 24.4007 60.6953 22.4892 61.681L22.5173 61.5889C25.0135 66.2254 28.0545 71.8724 31.3344 77.965L31.2015 77.9439L31.2771 77.8745C32.3205 76.9508 33.4611 76.1766 34.6472 75.5373C35.836 74.9038 37.0821 74.419 38.3488 74.149C38.9827 74.0176 39.6193 73.9396 40.2502 73.9154C40.8817 73.9044 41.5037 73.9466 42.1088 74.0464C43.3155 74.2612 44.4324 74.7121 45.4012 75.3035L45.2972 75.403C42.6582 70.8515 40.444 67.0335 38.8865 64.3472C38.1143 63.0057 37.5051 61.9473 37.0848 61.2176C36.8807 60.8585 36.7224 60.5804 36.6119 60.3861C36.5611 60.2946 36.5224 60.2239 36.4923 60.17C36.4658 60.1211 36.4533 60.0953 36.4543 60.0936Z" fill="#253138"/>
<path d="M49.7415 56.7318C49.7415 56.7318 43.3471 52.7041 36.5625 60.0939L45.4704 75.3668C45.4704 75.3668 47.2884 69.1673 57.9234 71.3233L49.7415 56.7318Z" fill="#F5F5F5"/>
<path d="M49.7418 56.7319C49.7435 56.7305 49.7577 56.7526 49.7845 56.7962C49.814 56.8458 49.8523 56.9104 49.9018 56.9935C50.0069 57.1758 50.157 57.4361 50.3502 57.7715C50.7431 58.4623 51.3123 59.4634 52.0339 60.7328C53.4793 63.2955 55.5349 66.9387 57.9884 71.2881C58.0084 71.3236 57.9955 71.3682 57.9596 71.3879C57.9443 71.3963 57.9274 71.3986 57.9118 71.3963L57.9087 71.3953C57.3904 71.3112 56.8627 71.2254 56.325 71.1383C56.0576 71.0851 55.783 71.0703 55.5071 71.0485C55.2308 71.0271 54.9529 71.0046 54.6722 70.9825C54.3922 70.95 54.1088 70.9571 53.8231 70.9628C53.5376 70.9661 53.2502 70.9698 52.9607 70.9735C52.6712 70.9799 52.3831 71.0318 52.0912 71.0589C51.8004 71.0954 51.5038 71.1102 51.217 71.1889C50.9275 71.2536 50.6363 71.3192 50.3431 71.3846C50.0597 71.4824 49.775 71.5809 49.4886 71.6801C49.2015 71.7782 48.9377 71.9344 48.6591 72.0597C48.5177 72.1196 48.3883 72.2011 48.2601 72.2851L47.8703 72.5321C47.6134 72.7016 47.3832 72.9107 47.1401 73.1036C46.9266 73.3278 46.6859 73.5295 46.4995 73.7811C46.0998 74.2568 45.7585 74.8056 45.5517 75.3896L45.55 75.3943C45.5348 75.4375 45.4866 75.4603 45.4426 75.4449C45.4232 75.4382 45.4076 75.4244 45.3978 75.408C45.2846 75.2137 45.1615 75.0029 45.0385 74.7922C41.8891 69.3821 38.9539 64.3412 36.5011 60.1284C36.4858 60.1016 36.4902 60.0681 36.5105 60.0464C38.0166 58.4228 39.6789 57.1838 41.3359 56.4605C42.989 55.7191 44.6019 55.5348 45.888 55.6165C47.1822 55.6959 48.1628 56.0068 48.8001 56.2611C49.1201 56.3888 49.3554 56.5091 49.512 56.5925C49.5852 56.6347 49.6421 56.6675 49.6865 56.693C49.7248 56.7181 49.7431 56.7309 49.7418 56.7319C49.7404 56.7332 49.7198 56.7232 49.6804 56.7024C49.6353 56.6793 49.5767 56.6498 49.5018 56.6116C49.3425 56.5349 49.1049 56.422 48.7838 56.301C48.1449 56.0605 47.1669 55.7643 45.8832 55.6976C44.6077 55.6286 43.0145 55.8222 41.383 56.565C39.7474 57.29 38.1058 58.524 36.6153 60.1408L36.6244 60.0587C39.0837 64.2678 42.0264 69.304 45.1846 74.7095C45.3076 74.9202 45.43 75.1306 45.5436 75.3249L45.3897 75.3433C45.611 74.7182 45.9578 74.1684 46.3693 73.6765C46.5612 73.4186 46.8076 73.2105 47.0273 72.981C47.2757 72.7837 47.512 72.5706 47.7747 72.3971L48.1733 72.1451C48.3049 72.0593 48.4371 71.9762 48.5811 71.9146C48.8655 71.787 49.1354 71.6278 49.4276 71.5283C49.7194 71.4278 50.0096 71.3283 50.298 71.2291C50.5957 71.1628 50.8916 71.0968 51.1855 71.0315C51.477 70.9524 51.7773 70.9366 52.0719 70.9001C52.3672 70.873 52.6594 70.8221 52.9522 70.8157C53.2448 70.8127 53.5349 70.8093 53.8234 70.8063C54.1122 70.8013 54.3983 70.7949 54.6803 70.8281C54.963 70.8509 55.2434 70.874 55.5217 70.8964C55.7996 70.9189 56.0766 70.935 56.3457 70.9889C56.8864 71.078 57.4176 71.1658 57.9386 71.2519L57.8586 71.3595C55.4305 67.003 53.397 63.3541 51.9665 60.7871C51.2594 59.5076 50.7011 58.4985 50.316 57.802C50.1299 57.4602 49.9855 57.1955 49.8845 57.0099C49.8384 56.9232 49.8031 56.8562 49.776 56.8042C49.7516 56.758 49.7404 56.7332 49.7418 56.7319Z" fill="#253138"/>
<path d="M24.8369 53.7456L34.3703 71.888C34.3703 71.888 42.1182 71.553 45.3975 75.285L36.5624 60.0932C36.5624 60.0932 31.3815 53.7456 24.8369 53.7456Z" fill="#F5F5F5"/>
<path d="M24.8371 53.7456C24.8371 53.7456 24.9154 53.747 25.0788 53.753C25.2524 53.76 25.4974 53.7704 25.814 53.7832C25.8947 53.7878 25.9818 53.7882 26.0717 53.7979C26.1598 53.8123 26.2527 53.8277 26.35 53.8435C26.5452 53.8756 26.7578 53.9101 26.9872 53.948C27.2198 53.9751 27.4588 54.0529 27.7174 54.1205C27.9733 54.1976 28.2553 54.2492 28.535 54.3594C30.8136 55.1089 33.8691 56.9254 36.6165 60.0506L36.6216 60.0577L36.6226 60.0594C39.1378 64.3759 42.1832 69.6021 45.4709 75.2438C45.494 75.2836 45.4801 75.3342 45.4397 75.357C45.4065 75.3761 45.3652 75.3698 45.3387 75.344L45.3343 75.3396C45.2163 75.2233 45.0882 75.098 44.9601 74.9724C44.2513 74.293 43.412 73.7569 42.5198 73.3783C41.6327 72.9907 40.7168 72.6912 39.7927 72.4948C37.9504 72.0857 36.1115 71.932 34.3742 71.9661H34.3718C34.341 71.9668 34.3139 71.9497 34.3006 71.9243C31.5217 66.5975 29.1475 62.0468 27.4642 58.8207C26.634 57.2223 25.9744 55.9525 25.5191 55.0754C25.2974 54.6469 25.1263 54.3149 25.0063 54.083C24.9517 53.9758 24.909 53.892 24.8771 53.8294C24.8486 53.7728 24.8351 53.7446 24.8371 53.7456C24.8391 53.7466 24.8564 53.7775 24.8883 53.8364C24.9232 53.9004 24.9697 53.9862 25.029 54.0964C25.1544 54.3306 25.3334 54.666 25.5646 55.0988C26.0313 55.9766 26.7069 57.2474 27.5571 58.8472C29.2516 62.0491 31.6424 66.5654 34.4403 71.8522L34.3671 71.8103C36.1247 71.7725 37.968 71.9253 39.8297 72.3357C40.7619 72.5327 41.6886 72.8342 42.5889 73.2269C43.4937 73.6108 44.3506 74.1563 45.078 74.8531C45.2096 74.9825 45.3404 75.1114 45.4614 75.2307L45.3248 75.3265C42.0469 69.6792 39.0107 64.4483 36.5026 60.1274L36.5091 60.1361C35.1671 58.5768 33.7037 57.356 32.3359 56.4045C30.9556 55.4667 29.6424 54.8141 28.5092 54.4331C28.232 54.3209 27.9523 54.2669 27.6987 54.1875C27.4428 54.1172 27.2055 54.0374 26.975 54.007C26.7472 53.9664 26.5364 53.9279 26.3425 53.8934C26.2459 53.876 26.1537 53.8595 26.0659 53.8438C25.9781 53.8327 25.8954 53.8304 25.8171 53.8237C25.2351 53.7771 24.9646 53.7557 24.8371 53.7456Z" fill="#253138"/>
<path d="M43.5053 92.8372C43.1448 96.5178 39.8449 99.221 36.135 98.8758C32.4251 98.5306 29.7096 95.2678 30.0701 91.5872C30.4307 87.9069 33.7306 85.2034 37.4405 85.5486C41.1504 85.8937 43.8658 89.1569 43.5053 92.8372Z" fill="#0F273E"/>
<path d="M35.7112 94.2021C35.6522 94.8025 35.1136 95.2434 34.5087 95.1874C33.9034 95.1313 33.4609 94.5994 33.5199 93.999C33.5789 93.3986 34.1171 92.9576 34.7224 93.0137C35.3273 93.0697 35.7702 93.6017 35.7112 94.2021Z" fill="white"/>
<path d="M34.4562 90.9246C34.4217 91.2738 34.1084 91.5304 33.7564 91.498C33.4044 91.4656 33.1471 91.1563 33.1816 90.8072C33.2161 90.4581 33.5294 90.2011 33.8814 90.2335C34.2334 90.2659 34.4907 90.5755 34.4562 90.9246Z" fill="white"/>
<path d="M30.1076 93.2277C30.1266 93.3462 23.8042 98.3137 25.1792 99.6241C26.5539 100.935 33.1188 98.5082 38.8838 94.7212C44.6487 90.9342 50.042 86.1866 48.8411 84.6862C47.6404 83.1862 40.5612 86.6425 40.5612 86.6425L41.3098 87.2213C41.3098 87.2213 45.6002 85.0253 46.7794 86.1415C47.9586 87.2577 43.9347 90.8168 38.4301 94.0619C32.9257 97.307 27.7036 99.4594 27.0329 98.3684C26.3626 97.2771 30.3337 94.2134 30.3337 94.2134L30.1076 93.2277Z" fill="#0F273E"/>
<path d="M30.1077 93.2274C30.1266 93.3459 23.8042 98.3137 25.1792 99.6241C26.5539 100.935 33.1188 98.5082 38.8838 94.7212C44.6487 90.9342 50.042 86.1866 48.8411 84.6862C47.6404 83.1862 40.5612 86.6425 40.5612 86.6425L41.3098 87.2213C41.3098 87.2213 45.6002 85.0253 46.7794 86.1415C47.9586 87.2577 43.9347 90.8168 38.4301 94.0619C32.9257 97.307 27.7036 99.4594 27.0329 98.3684C26.3626 97.2771 30.3337 94.2134 30.3337 94.2134L30.1077 93.2274Z" fill="#0F273E"/>
<path d="M33.5296 87.1711C33.5774 87.2402 33.0861 87.5809 32.4975 88.3015C31.9097 89.01 31.255 90.1584 31.0901 91.5455C30.9278 92.9335 31.2983 94.1978 31.7056 95.0194C32.111 95.8529 32.51 96.2942 32.4472 96.351C32.4091 96.3943 31.9008 96.035 31.3822 95.1949C31.1238 94.7779 30.8784 94.2384 30.717 93.6044C30.5548 92.9721 30.4875 92.2425 30.5731 91.4871C30.6658 90.732 30.9006 90.0374 31.2058 89.4581C31.5101 88.877 31.8748 88.4066 32.2231 88.0583C32.9241 87.3563 33.502 87.12 33.5296 87.1711Z" fill="white"/>
<path d="M105.685 30.614C105.758 27.5705 108.314 25.162 111.393 25.234C114.472 25.3064 116.909 27.8319 116.836 30.8753C116.763 33.9187 114.208 36.3273 111.128 36.2553C108.049 36.1829 105.612 33.6574 105.685 30.614Z" fill="#0F273E"/>
<path d="M113.078 28.6331C113.09 28.1369 113.506 27.7439 114.009 27.7556C114.511 27.7677 114.908 28.1794 114.896 28.6756C114.884 29.1722 114.468 29.5651 113.965 29.5534C113.463 29.5414 113.066 29.1296 113.078 28.6331Z" fill="black"/>
<path d="M114.897 30.7321C114.904 30.4433 115.146 30.2148 115.438 30.2218C115.73 30.2285 115.962 30.4681 115.954 30.7569C115.948 31.0457 115.705 31.2742 115.413 31.2675C115.121 31.2604 114.89 31.0209 114.897 30.7321Z" fill="black"/>
<path d="M114.187 32.3382C114.294 32.3409 114.38 32.429 114.378 32.5355C114.375 32.6421 114.285 32.7265 114.178 32.7238C114.07 32.7215 113.985 32.633 113.987 32.5265C113.99 32.4199 114.079 32.3358 114.187 32.3382Z" fill="black"/>
<path d="M82.3405 23.0637C82.0463 18.5622 78.1155 15.1488 73.5611 15.4396C69.0066 15.7305 65.5531 19.6155 65.8473 24.117C66.0605 27.3762 68.1805 30.0636 71.0625 31.1889C71.1252 32.1548 71.1967 33.2454 71.1967 33.2454L78.4244 32.7837C78.4244 32.7837 78.3928 31.6268 78.3413 30.5956C80.9084 29.0722 82.5466 26.2204 82.3405 23.0637Z" fill="#80B7C8" fill-opacity="0.59"/>
<path d="M75.8087 32.9169C75.8087 32.9169 75.8074 32.8824 75.8101 32.8157C75.8138 32.745 75.8182 32.6465 75.8247 32.5195C75.8396 32.2596 75.8609 31.8756 75.902 31.3821C75.9433 30.8886 76.0016 30.2849 76.1142 29.5893C76.2301 28.8958 76.3982 28.1058 76.7145 27.2733C76.8728 26.8575 77.0592 26.4303 77.3128 26.0105C77.4436 25.8045 77.6107 25.6014 77.844 25.4738C78.0762 25.3451 78.3765 25.326 78.6283 25.449C78.7534 25.5103 78.8629 25.6195 78.9104 25.7552C78.9633 25.8882 78.9592 26.0437 78.9036 26.1753C78.7931 26.4417 78.5616 26.6367 78.3019 26.7586C77.7697 26.9818 77.1392 26.9747 76.5796 26.7483C76.0186 26.5228 75.5511 26.0484 75.3264 25.4627C75.2182 25.1716 75.1484 24.8493 75.2162 24.5256C75.2735 24.2047 75.566 23.9018 75.9287 23.9115C76.1081 23.9129 76.2782 24.0234 76.367 24.1718C76.4596 24.3196 76.4928 24.4995 76.466 24.6704C76.4091 25.0155 76.1775 25.2858 75.9392 25.5173C75.4477 25.975 74.7552 26.2561 74.0532 26.1911C73.3562 26.1261 72.7074 25.715 72.382 25.1183C72.2125 24.8252 72.1529 24.4603 72.2614 24.1343C72.3163 23.9735 72.4325 23.8191 72.5997 23.7507C72.7637 23.676 72.9552 23.6944 73.1102 23.7644C73.2671 23.8338 73.3986 23.9561 73.4817 24.1001C73.5681 24.2432 73.6135 24.403 73.6383 24.5615C73.6827 24.8794 73.6573 25.1997 73.5739 25.5009C73.4115 26.1047 73.0173 26.6307 72.5007 26.9422C71.9871 27.2568 71.3739 27.3704 70.8095 27.283C70.5309 27.2404 70.2428 27.15 70.0417 26.9412C69.8451 26.7375 69.7712 26.3998 69.9445 26.1593C70.0309 26.043 70.1675 25.9753 70.3034 25.9562C70.44 25.9378 70.578 25.9566 70.7021 26.0068C70.9546 26.1107 71.1187 26.3254 71.2431 26.5338C71.4793 26.9627 71.6739 27.3815 71.8692 27.7808C72.6359 29.3816 73.1922 30.7053 73.5671 31.6233C73.7542 32.0823 73.8939 32.4412 73.9878 32.6847C74.0325 32.8037 74.0671 32.8961 74.0922 32.9625C74.1152 33.0254 74.1244 33.0583 74.1244 33.0583C74.1244 33.0583 74.1084 33.0278 74.0823 32.9661C74.0552 32.9008 74.0176 32.8097 73.9684 32.6921C73.8667 32.4472 73.7196 32.0927 73.5305 31.6381C73.1451 30.7251 72.5786 29.4064 71.8044 27.8117C71.6081 27.4156 71.4088 26.9918 71.1756 26.573C71.0549 26.3713 70.8956 26.1713 70.6716 26.0815C70.4539 25.9924 70.1583 26.0119 70.0126 26.2082C69.8695 26.4032 69.9295 26.7044 70.1048 26.8823C70.2841 27.0685 70.5539 27.156 70.8234 27.1959C71.3665 27.2786 71.9583 27.1674 72.4515 26.8635C72.9468 26.5637 73.3247 26.0574 73.4803 25.4761C73.56 25.1867 73.5834 24.8774 73.541 24.5759C73.4996 24.2797 73.3529 23.9758 73.0695 23.8542C72.9335 23.7933 72.7739 23.7795 72.6397 23.8412C72.5027 23.8975 72.4058 24.0238 72.3563 24.1668C72.2597 24.4593 72.3105 24.7953 72.4705 25.0707C72.778 25.6356 73.4 26.0303 74.063 26.0913C74.7305 26.1536 75.3972 25.8845 75.8701 25.4446C76.1003 25.2222 76.3182 24.9605 76.3667 24.6556C76.3904 24.5065 76.3609 24.3497 76.282 24.2241C76.2053 24.0978 76.0708 24.0114 75.925 24.0097C75.7793 24.0047 75.6325 24.068 75.5237 24.1665C75.4128 24.2643 75.3443 24.4013 75.3121 24.5467C75.2494 24.8396 75.3132 25.1498 75.4172 25.4286C75.6315 25.9901 76.0792 26.4461 76.6155 26.6628C77.1494 26.8819 77.7629 26.888 78.2643 26.6786C78.5077 26.5663 78.7253 26.3794 78.8226 26.1445C78.927 25.9103 78.8158 25.6269 78.59 25.5234C78.3694 25.4135 78.0921 25.4279 77.8829 25.5445C77.6677 25.6607 77.5074 25.852 77.3789 26.0517C77.1294 26.4608 76.9399 26.8876 76.7813 27.2984C76.4636 28.1229 76.2911 28.9079 76.1701 29.5987C76.0528 30.2909 75.9887 30.893 75.9416 31.3855C75.8999 31.8753 75.8674 32.2572 75.845 32.5209C75.8345 32.6475 75.8264 32.746 75.8206 32.8164C75.8145 32.8831 75.8087 32.9169 75.8087 32.9169Z" fill="#253138"/>
<path d="M77.9549 34.1415L71.7489 34.5379C71.492 34.5543 71.2693 34.3616 71.2527 34.1074C71.2364 33.8531 71.4316 33.634 71.6889 33.6175L77.8946 33.2212C78.1518 33.2048 78.3739 33.3978 78.3905 33.652C78.4071 33.906 78.2122 34.1251 77.9549 34.1415Z" fill="#253138"/>
<path d="M77.9809 34.5439L71.7749 34.9403C71.518 34.9567 71.3228 35.1765 71.3394 35.4308C71.3563 35.6847 71.578 35.8777 71.8353 35.8613L72.5166 35.8177L73.5315 37.4598C73.6478 37.6477 73.8596 37.7566 74.0817 37.7425L76.2993 37.6011C76.5237 37.5867 76.7213 37.4487 76.8108 37.245L77.5782 35.4944L78.0413 35.465C78.2985 35.4485 78.4934 35.2288 78.4768 34.9745C78.4602 34.7202 78.2382 34.5275 77.9809 34.5439Z" fill="#253138"/>
<path d="M68.4563 18.7354C68.978 18.194 69.5359 17.8013 70.0369 17.545C70.5383 17.287 70.9742 17.1497 71.284 17.0987C71.5942 17.0468 71.7735 17.0652 71.7928 17.1292C71.8386 17.275 71.2278 17.5343 70.4217 18.144C69.6183 18.7417 68.6292 19.7609 68.0824 21.147C67.5404 22.5347 67.5753 23.9468 67.7607 24.9235C67.94 25.9111 68.2139 26.5095 68.081 26.5869C68.0231 26.6211 67.8777 26.5152 67.6844 26.2703C67.4902 26.0261 67.2621 25.6341 67.0678 25.1094C66.8729 24.5861 66.7285 23.9244 66.7129 23.1769C66.696 22.4311 66.8211 21.5993 67.136 20.7838" fill="white"/>
<path d="M73.7994 17.354C73.2764 17.3825 72.8059 17.2706 72.7344 17.0005C72.7029 16.8665 72.7896 16.7157 72.9713 16.5908C73.1517 16.4661 73.4266 16.3707 73.7391 16.3522C74.0516 16.3341 74.336 16.3965 74.5299 16.4993C74.7252 16.6018 74.8299 16.7415 74.8143 16.8782" fill="white"/>
<path d="M76.7048 37.3974C76.6984 37.4131 76.5377 37.3525 76.2699 37.2949C76.0028 37.2366 75.6242 37.1934 75.2089 37.2309C74.7934 37.2704 74.4296 37.3823 74.1781 37.4885C73.9256 37.5944 73.7792 37.6835 73.77 37.6694C73.7636 37.6607 73.8971 37.5495 74.148 37.4242C74.3974 37.2986 74.7707 37.1716 75.1995 37.131C75.6283 37.0922 76.0188 37.1485 76.2876 37.2259C76.5574 37.3029 76.7096 37.3877 76.7048 37.3974Z" fill="#455A63"/>
<path d="M77.5924 35.5139C77.5944 35.5417 76.4738 35.6355 75.0901 35.7239C73.706 35.8124 72.583 35.862 72.5813 35.8345C72.5793 35.8067 73.6996 35.7122 75.0836 35.6241C76.4673 35.5353 77.5907 35.4861 77.5924 35.5139Z" fill="#455A63"/>
<path d="M77.2522 36.2664C77.2536 36.2798 77.0217 36.3196 76.6451 36.3672C76.2685 36.4148 75.7465 36.4697 75.1689 36.5146C74.5906 36.5599 74.0665 36.586 73.6865 36.5974C73.3069 36.6084 73.072 36.6058 73.0713 36.592C73.0706 36.5779 73.3045 36.5558 73.6828 36.5264C74.0916 36.4955 74.5991 36.457 75.1607 36.4145C75.7217 36.3696 76.2288 36.3294 76.638 36.2965C77.0159 36.267 77.2505 36.2523 77.2522 36.2664Z" fill="#455A63"/>
<path d="M53.1671 15.609H52.6708C51.6573 15.609 50.8359 14.7972 50.8359 13.7955V5.30737H55.0019V13.7955C55.0019 14.7972 54.1803 15.609 53.1671 15.609Z" fill="#0F273E"/>
<path d="M50.8359 5.30709L52.9189 1.53125L55.0019 5.30709H50.8359Z" fill="#FFBD9D"/>
<path d="M52.0938 3.02675C52.0938 3.02675 52.7263 3.96719 53.7439 3.02675L52.9188 1.53149L52.0938 3.02675Z" fill="#0F273E"/>
<path d="M51.4528 5.30769H52.347H51.4528ZM-202.463 -56.6006H231.426V184.624H-202.463V-56.6006ZM-202.463 184.624H231.426V-56.6006H-202.463V184.624ZM51.4528 5.30736H52.347H51.4528Z" fill="white"/>
<path d="M55.0595 13.382C55.0595 13.4279 54.111 13.4654 52.9419 13.4654C51.7721 13.4654 50.824 13.4279 50.824 13.382C50.824 13.3361 51.7721 13.2986 52.9419 13.2986C54.111 13.2986 55.0595 13.3361 55.0595 13.382Z" fill="#253138"/>
<path d="M55.0169 12.7508C55.0169 12.7967 54.0874 12.8346 52.9417 12.8346C51.7952 12.8346 50.8665 12.7967 50.8665 12.7508C50.8665 12.7049 51.7952 12.6677 52.9417 12.6677C54.0874 12.6677 55.0169 12.7049 55.0169 12.7508Z" fill="#253138"/>
<path d="M52.0585 5.36768C52.1053 5.36768 52.1426 7.01135 52.1426 9.03831C52.1426 11.0659 52.1053 12.7089 52.0585 12.7089C52.0121 12.7089 51.9741 11.0659 51.9741 9.03831C51.9741 7.01135 52.0121 5.36768 52.0585 5.36768Z" fill="#F9F9F9"/>
<path d="M53.7443 5.36768C53.7907 5.36768 53.8284 7.01135 53.8284 9.03831C53.8284 11.0659 53.7907 12.7089 53.7443 12.7089C53.6975 12.7089 53.6599 11.0659 53.6599 9.03831C53.6599 7.01135 53.6975 5.36768 53.7443 5.36768Z" fill="#F9F9F9"/>
<path d="M68.4318 72.6526L76.9557 71.4036L72.8802 65.6973L70.6948 65.8249C69.2237 65.9103 67.9274 66.8089 67.3444 68.1464C67.0346 68.8566 66.9485 69.6426 67.097 70.4022L68.4318 72.6526Z" fill="#E8505B"/>
<path d="M68.4318 72.6529L76.9557 71.4036L72.8802 65.6973L70.6948 65.8249C69.2237 65.9103 67.9274 66.8089 67.3444 68.1464C67.0346 68.8566 66.9485 69.6426 67.097 70.4021L68.4318 72.6529Z" fill="#0F273E"/>
<path d="M105.047 81.9883C105.135 82.2295 105.231 82.5149 105.328 82.8567C105.411 83.1498 105.44 83.4554 105.42 83.7589C105.394 84.1274 105.34 84.6159 105.227 84.8739C105.087 85.1935 105.413 85.5148 105.689 85.3553C105.965 85.1955 106.373 84.3244 106.348 83.2031C106.323 82.0817 107.48 83.4259 107.911 83.908C108.342 84.3905 109.745 85.8207 110 85.8073C110.374 85.7879 110.421 85.3882 109.98 84.9165C109.533 84.439 108.315 82.9377 108.584 82.7253C108.849 82.5159 111.007 85.0009 111.007 85.0009C111.007 85.0009 111.381 85.606 111.7 85.3704C112.275 84.9459 109.784 82.4714 109.541 82.2419C109.372 82.0821 109.656 81.8412 109.828 82.0221C110.005 82.208 111.922 84.5499 112.511 84.1231C112.964 83.7961 110.482 82.069 110.357 81.3651C110.232 80.6605 112.105 82.8634 112.524 82.5334C112.68 82.4104 112.779 82.2972 111.519 81.1855C110.907 80.6458 108.582 79.0376 108.582 79.0376L101.586 59.2388L96.1833 62.297L105.047 81.9883Z" fill="#FFBD9D"/>
<path d="M63.3989 44.5452L55.5808 35.3237H55.5805C55.4791 35.0068 55.3567 34.6975 55.1978 34.4044C54.8069 33.6847 54.1605 33.0582 53.3534 32.8837C52.8575 32.7765 52.29 32.828 51.9009 32.5057C51.727 32.3617 51.6114 32.1566 51.4287 32.023C51.2467 31.8893 50.9433 31.8631 50.8267 32.0558C50.7436 32.1928 50.7962 32.3684 50.8592 32.5155C51.149 33.1962 51.6233 33.7976 52.2161 34.2473C51.4833 34.4674 50.4362 34.8004 50.4362 34.8004C50.4362 34.8004 48.7837 33.0281 47.9372 33.0338C47.0905 33.0391 48.6209 34.6161 48.6209 34.6161C48.6209 34.6161 47.2654 33.3778 46.8451 33.7269C46.4247 34.0757 47.502 34.995 47.502 34.995C47.16 34.8145 46.7851 34.6275 46.4024 34.6905C46.0193 34.7532 45.6902 35.2001 45.8963 35.5251C45.9752 35.6494 46.1105 35.7261 46.2403 35.7978C46.9342 36.1797 47.6277 36.5617 48.3213 36.9439C48.6694 37.1359 49.0352 37.3326 49.4338 37.3446C50.489 37.3768 51.2921 36.7309 52.3476 36.7587C52.3476 36.7587 58.2431 49.0246 58.8394 49.6571C59.436 50.2897 72.3872 51.1511 72.3872 51.1511L79.8833 44.7677L63.3989 44.5452Z" fill="#FFBD9D"/>
<path d="M86.8809 111.359L94.8649 114.796L90.5893 124.636C89.6636 124.174 89.966 118.274 89.966 118.274L84.7593 116.279L86.8809 111.359Z" fill="#0F273E"/>
<path d="M90.8566 115.048C90.9918 114.88 91.2657 114.84 91.4413 114.967C91.6169 115.094 91.6599 115.369 91.5274 115.539C91.3952 115.709 91.0678 115.767 90.9078 115.622C90.7481 115.476 90.7152 115.151 90.885 115.017" fill="white"/>
<path d="M94.8646 114.796L94.0464 114.481L90.2532 124.033C90.2532 124.033 90.2555 124.553 90.5894 124.636L94.8646 114.796Z" fill="white"/>
<path d="M89.8462 118.412C89.8957 118.431 90.0218 118.2 90.2808 118.03C90.535 117.853 90.7994 117.821 90.7991 117.768C90.8089 117.72 90.4872 117.668 90.1774 117.88C89.8655 118.088 89.7971 118.404 89.8462 118.412Z" fill="#253138"/>
<path d="M89.8296 119.627C89.872 119.658 90.0452 119.485 90.3214 119.409C90.596 119.325 90.836 119.378 90.8546 119.329C90.8818 119.287 90.6119 119.133 90.2696 119.234C89.9269 119.332 89.7838 119.606 89.8296 119.627Z" fill="#253138"/>
<path d="M90.8245 120.743C90.854 120.704 90.6397 120.534 90.3197 120.544C89.9997 120.553 89.7964 120.735 89.8282 120.772C89.8564 120.816 90.0625 120.731 90.3252 120.726C90.5879 120.716 90.799 120.789 90.8245 120.743Z" fill="#253138"/>
<path d="M88.7105 117.827C88.7634 117.826 88.7918 117.577 88.9288 117.313C89.0596 117.047 89.244 116.875 89.2132 116.832C89.1901 116.789 88.9203 116.919 88.7637 117.232C88.6047 117.543 88.6617 117.834 88.7105 117.827Z" fill="#253138"/>
<path d="M87.631 117.091C87.651 117.1 87.7636 116.923 87.8425 116.597C87.8819 116.435 87.909 116.236 87.9063 116.013C87.9049 115.903 87.8958 115.786 87.8774 115.666C87.8676 115.608 87.8615 115.542 87.8249 115.467C87.7971 115.393 87.6815 115.308 87.5758 115.336C87.4775 115.353 87.4056 115.429 87.3731 115.499C87.3395 115.57 87.3283 115.636 87.3188 115.695C87.2982 115.816 87.29 115.934 87.2921 116.046C87.2968 116.271 87.3398 116.47 87.3965 116.629C87.511 116.948 87.6588 117.102 87.6754 117.09C87.7005 117.075 87.5968 116.9 87.5212 116.592C87.4836 116.439 87.4571 116.253 87.4615 116.047C87.4646 115.944 87.4751 115.836 87.4964 115.726C87.5137 115.61 87.5517 115.521 87.61 115.515C87.6324 115.513 87.6398 115.514 87.6612 115.548C87.6802 115.583 87.6897 115.638 87.6995 115.695C87.7192 115.806 87.731 115.915 87.7368 116.019C87.7486 116.227 87.7361 116.416 87.7144 116.574C87.6717 116.889 87.6042 117.081 87.631 117.091Z" fill="#253138"/>
<path d="M87.7279 117.058C87.7428 117.044 87.6099 116.875 87.3028 116.724C87.1503 116.649 86.954 116.585 86.7279 116.56C86.6147 116.547 86.4944 116.545 86.3703 116.556C86.2469 116.572 86.0845 116.587 85.9822 116.764C85.9361 116.86 85.9781 116.973 86.0317 117.028C86.0849 117.09 86.1398 117.121 86.1927 117.157C86.3011 117.224 86.4161 117.27 86.5283 117.3C86.7537 117.358 86.9672 117.348 87.1347 117.308C87.4764 117.225 87.6215 117.049 87.6069 117.038C87.5893 117.012 87.4228 117.14 87.111 117.181C86.9574 117.202 86.7679 117.198 86.5747 117.138C86.4781 117.109 86.3808 117.066 86.2906 117.007C86.1913 116.947 86.1232 116.871 86.151 116.836C86.1713 116.787 86.2872 116.738 86.3893 116.734C86.5005 116.721 86.6089 116.72 86.7123 116.727C86.9188 116.741 87.1028 116.787 87.2513 116.842C87.5496 116.953 87.7089 117.081 87.7279 117.058Z" fill="#253138"/>
<path d="M80.7322 124.877L84.0338 131.714L85.068 137.867C85.1426 138.311 85.5819 138.599 86.0243 138.495C86.2724 138.437 86.4751 138.267 86.5707 138.033C87.1778 136.548 89.3832 131.072 89.113 130.585C88.8005 130.021 86.1138 123.144 86.1138 123.144L80.7322 124.877Z" fill="#0F273E"/>
<path d="M86.0242 138.495L88.9007 130.119L89.0339 130.411C89.1492 130.664 89.1709 130.95 89.0926 131.216C88.8831 131.929 88.2614 133.885 86.5916 138.024C86.4947 138.265 86.2808 138.442 86.0242 138.495Z" fill="white"/>
<path d="M86.4517 128.527C86.331 128.725 86.3927 129.012 86.5873 129.139C86.7826 129.266 87.0788 129.207 87.2029 129.011C87.327 128.816 87.2636 128.469 87.0554 128.364C86.8476 128.258 86.5036 128.348 86.4307 128.567" fill="white"/>
<path d="M86.249 134.766C86.2181 134.802 85.8954 134.511 85.3914 134.501C84.887 134.476 84.5456 134.745 84.5175 134.706C84.5036 134.692 84.5673 134.599 84.7205 134.503C84.8717 134.408 85.1192 134.325 85.3971 134.334C85.6758 134.344 85.9161 134.444 86.0602 134.55C86.2063 134.655 86.2639 134.753 86.249 134.766Z" fill="#253138"/>
<path d="M86.172 135.912C86.1524 135.957 85.8259 135.832 85.4175 135.89C85.008 135.94 84.7259 136.145 84.6954 136.107C84.6588 136.08 84.929 135.784 85.3954 135.725C85.8612 135.662 86.2002 135.877 86.172 135.912Z" fill="#253138"/>
<path d="M86.6369 133.167C86.6189 133.215 86.1176 133.02 85.4749 133.056C84.8315 133.082 84.3515 133.323 84.3288 133.278C84.3007 133.246 84.7769 132.919 85.4668 132.89C86.1562 132.854 86.6617 133.133 86.6369 133.167Z" fill="#253138"/>
<path d="M85.8086 131.006C85.8086 131.056 85.3497 131.068 84.8392 131.273C84.3253 131.472 83.9839 131.775 83.9497 131.739C83.9148 131.713 84.2249 131.333 84.7768 131.119C85.3259 130.9 85.8157 130.964 85.8086 131.006Z" fill="#253138"/>
<path d="M84.8902 128.975C84.8869 129.024 84.3936 128.967 83.8736 129.227C83.3479 129.475 83.093 129.896 83.0513 129.868C83.033 129.859 83.0703 129.738 83.1896 129.575C83.3076 129.412 83.5181 129.214 83.7994 129.077C84.0811 128.941 84.3679 128.897 84.5709 128.904C84.7747 128.91 84.894 128.955 84.8902 128.975Z" fill="#253138"/>
<path d="M83.7104 128.835C83.7019 128.839 83.6436 128.753 83.5819 128.578C83.5212 128.404 83.4585 128.135 83.4809 127.8C83.4982 127.638 83.5016 127.438 83.6555 127.26C83.7314 127.171 83.8843 127.125 84.0087 127.179C84.1314 127.232 84.2094 127.334 84.2612 127.442C84.4534 127.884 84.2656 128.478 83.7948 128.762C83.3185 129.039 82.7358 128.958 82.365 128.668C82.2769 128.589 82.1921 128.482 82.1931 128.341C82.1931 128.199 82.3141 128.089 82.4216 128.062C82.6436 128 82.828 128.06 82.9901 128.094C83.3182 128.178 83.5589 128.314 83.7114 128.419C83.865 128.525 83.9338 128.603 83.9277 128.61C83.9111 128.639 83.5965 128.349 82.9629 128.209C82.8067 128.181 82.6223 128.14 82.4667 128.193C82.3904 128.218 82.3409 128.274 82.3416 128.344C82.3402 128.412 82.3941 128.492 82.467 128.552C82.7758 128.787 83.3084 128.86 83.7077 128.62C84.1067 128.384 84.2711 127.862 84.1199 127.505C84.0822 127.419 84.0202 127.344 83.9514 127.314C83.8836 127.284 83.8084 127.301 83.7558 127.356C83.6446 127.471 83.6192 127.656 83.5995 127.81C83.5355 128.449 83.745 128.827 83.7104 128.835Z" fill="#253138"/>
<path d="M91.858 112.195L82.8053 106.172L85.8012 77.0934L77.2261 72.1439L69.3846 70.3481C69.3846 70.3481 66.1094 77.082 64.6532 81.3925C61.5559 90.5611 59.3817 93.8464 59.878 100.492C60.0353 102.596 67.8941 107.857 72.8571 110.78C72.9252 111.451 73.012 112.037 73.1204 112.521C74.8163 120.099 79.9925 130.176 79.9925 130.176L87.8598 126.561L85.3212 117.968L87.9652 119.493L91.858 112.195ZM72.3988 93.4444L73.455 88.7834C73.2316 91.7471 73.0276 94.8388 72.8818 97.8039C72.3733 96.4336 72.1998 94.9105 72.3988 93.4444Z" fill="#253138"/>
<path d="M79.9926 130.176C79.9899 130.177 79.9695 130.135 79.9316 130.053C79.8916 129.963 79.8377 129.842 79.7689 129.686C79.6262 129.354 79.4218 128.878 79.1604 128.268C78.638 127.034 77.8899 125.245 76.9896 123.025C76.094 120.803 75.0279 118.157 73.9541 115.176C73.6863 114.431 73.4239 113.662 73.1778 112.869C73.0687 112.467 72.9317 112.071 72.8602 111.646C72.8395 111.541 72.8154 111.436 72.7978 111.33L72.7602 111.013C72.7365 110.801 72.7121 110.588 72.688 110.374C72.5961 109.517 72.5195 108.644 72.4629 107.756C72.4344 107.312 72.4104 106.865 72.3924 106.414C72.3761 105.965 72.3558 105.506 72.3819 105.05C72.5148 101.396 72.8256 97.9327 73.0812 94.78C73.3476 91.6303 73.5876 88.7933 73.7893 86.4078C73.9846 84.0244 74.1212 82.0942 74.1985 80.7598C74.2408 80.0924 74.2642 79.5741 74.2798 79.2223C74.2893 79.0528 74.2964 78.9201 74.3019 78.8226C74.3076 78.7322 74.3124 78.6859 74.3151 78.6863C74.3181 78.6863 74.3195 78.7325 74.3191 78.823C74.3181 78.9208 74.3161 79.0535 74.3141 79.2233C74.309 79.5755 74.2961 80.0951 74.2642 80.7632C74.2069 82.0996 74.0883 84.0318 73.9083 86.4172C73.7164 88.8036 73.4886 91.6414 73.2358 94.7924C72.989 97.9437 72.6829 101.411 72.5504 105.053C72.5239 105.508 72.5443 105.956 72.5605 106.408C72.5782 106.857 72.6019 107.303 72.63 107.746C72.686 108.631 72.7615 109.502 72.8524 110.357C72.8761 110.57 72.8995 110.783 72.9232 110.994L72.9602 111.311C72.9775 111.414 73.0009 111.516 73.0209 111.618C73.0883 112.028 73.2249 112.426 73.332 112.823C73.5751 113.613 73.8351 114.38 74.1002 115.125C75.1645 118.105 76.2191 120.756 77.1001 122.982C77.9933 125.198 78.717 126.993 79.2214 128.243C79.4699 128.858 79.6645 129.338 79.8001 129.673C79.8624 129.832 79.9116 129.955 79.9475 130.046C79.98 130.131 79.9953 130.175 79.9926 130.176Z" fill="#455A63"/>
<path d="M73.9422 77.7034C73.9351 77.7121 73.8625 77.6545 73.7358 77.5382C73.6178 77.4156 73.4744 77.2092 73.3527 76.9301C73.109 76.3703 72.9856 75.5344 72.967 74.6234C72.95 73.7091 73.0185 72.8859 73.0792 72.2933C73.1419 71.7006 73.1924 71.3357 73.2151 71.3374C73.2388 71.3387 73.23 71.708 73.1982 72.302C73.168 72.896 73.1188 73.7162 73.1354 74.6197C73.1541 75.5206 73.2571 76.3381 73.4639 76.8869C73.5673 77.1606 73.6876 77.3657 73.7856 77.4963C73.8924 77.62 73.9493 77.6947 73.9422 77.7034Z" fill="#455A63"/>
<path d="M70.5563 70.7832C70.5733 70.7796 70.6549 71.0881 70.6234 71.5967C70.5953 72.1009 70.4217 72.8102 69.9746 73.4588C69.5275 74.1074 68.9228 74.5266 68.4587 74.737C67.9909 74.9521 67.6706 74.9896 67.6679 74.9725C67.6597 74.945 67.9652 74.867 68.4045 74.6321C68.8418 74.4013 69.4082 73.9848 69.8356 73.365C70.2627 72.7455 70.4478 72.0724 70.5051 71.5856C70.5655 71.0955 70.5275 70.7859 70.5563 70.7832Z" fill="#455A63"/>
<path d="M84.6237 87.689C84.6267 87.6893 84.626 87.7195 84.622 87.7778C84.6162 87.8454 84.6087 87.9305 84.5999 88.0361C84.5755 88.2756 84.542 88.6076 84.4992 89.0288C84.4026 89.9032 84.2654 91.1465 84.0969 92.6773C83.7427 95.767 83.2562 100.015 82.719 104.706C82.5112 107.056 82.7186 109.316 83.1647 111.308C83.385 112.306 83.6769 113.233 83.984 114.091C84.2887 114.949 84.5725 115.75 84.8318 116.482C85.3419 117.938 85.7565 119.119 86.048 119.95C86.1846 120.351 86.2928 120.667 86.3704 120.895C86.4033 120.996 86.4294 121.078 86.4507 121.143C86.4673 121.199 86.4751 121.228 86.4721 121.229C86.4694 121.23 86.4565 121.202 86.4345 121.148C86.4094 121.085 86.3778 121.005 86.3389 120.907C86.2538 120.681 86.1358 120.369 85.9863 119.972C85.6826 119.145 85.2511 117.969 84.7196 116.522C84.4542 115.792 84.164 114.993 83.8528 114.137C83.5389 113.279 83.2389 112.345 83.0132 111.341C82.5556 109.338 82.3417 107.059 82.5512 104.692C83.0806 99.9874 83.6064 95.7435 83.9786 92.6652C84.1694 91.1368 84.3247 89.8958 84.4335 89.0227C84.4898 88.6029 84.5342 88.2716 84.566 88.033C84.582 87.9282 84.5945 87.8434 84.6047 87.7761C84.6145 87.7185 84.6206 87.6886 84.6237 87.689Z" fill="#455A63"/>
<path d="M69.385 70.2918L70.7735 66.7847L73.9415 71.4547L69.7169 70.4108" fill="#FFBD9D"/>
<path d="M102.545 59.7496L98.7834 51.4166C98.3339 50.0771 97.4902 49.8691 96.7838 49.0915L87.3633 43.8401C80.4974 41.0604 76.7588 50.3823 76.7588 50.3823L70.5186 64.4508C63.1798 66.8556 68.3756 72.4259 68.3756 72.4259C68.3756 72.4259 66.3797 68.9965 68.3427 67.7592C70.3983 66.4636 72.6775 69.877 74.867 73.1191C77.452 76.9465 85.8515 79.4328 85.8515 79.4328C86.8338 78.4069 86.5596 74.8254 87.3288 72.9037C87.5728 72.2942 93.3893 58.9773 93.3893 58.9773L95.6442 64.3771C95.6442 64.3771 98.5346 61.0277 99.9353 60.4953C101.336 59.9626 102.545 59.7496 102.545 59.7496Z" fill="#0F273E"/>
<path d="M85.8513 65.6714C85.8568 65.6798 85.7581 65.7541 85.5659 65.868C85.3744 65.9826 85.0846 66.129 84.709 66.2698C83.9639 66.5532 82.8358 66.7736 81.6131 66.587C80.3898 66.4004 79.3816 65.8543 78.7576 65.3618C78.4423 65.1159 78.2108 64.8897 78.0627 64.7236C77.9149 64.5577 77.8434 64.4575 77.8512 64.4508C77.8746 64.4291 78.1912 64.8077 78.8291 65.2677C79.4603 65.7273 80.4494 66.2409 81.6385 66.4225C82.8273 66.6038 83.9273 66.4091 84.6693 66.1589C85.4181 65.9103 85.8357 65.6436 85.8513 65.6714Z" fill="#253138"/>
<path d="M70.2388 52.4578L76.0526 53.0002L85.3538 43.2835L79.8834 43.0979L70.1426 44.0481C70.1426 44.0481 71.0053 48.0608 70.2388 52.4578Z" fill="#0F273E"/>
<path d="M78.3139 47.338C78.319 47.3406 78.2943 47.402 78.2428 47.5162C78.1814 47.6459 78.1045 47.8104 78.0095 48.0124C77.796 48.4623 77.5035 49.0795 77.1465 49.833C76.4235 51.3728 75.4645 53.5173 74.4246 55.8957C73.3849 58.2752 72.4388 60.4278 71.7239 61.9726C71.367 62.7455 71.0724 63.3687 70.8606 63.7952C70.7602 63.9945 70.6789 64.1563 70.6141 64.2847C70.5562 64.3959 70.5233 64.4532 70.5179 64.4508C70.5124 64.4485 70.5355 64.3862 70.5833 64.2706C70.6402 64.1389 70.7124 63.9724 70.8009 63.7677C71.0023 63.3124 71.2782 62.6876 71.6151 61.925C72.3026 60.347 73.2368 58.2011 74.27 55.8297C75.3103 53.4507 76.2876 51.3115 77.0387 49.7827C77.4133 49.0182 77.7251 48.4034 77.9506 47.9836C78.057 47.7872 78.1438 47.6274 78.2123 47.5015C78.2739 47.3919 78.3085 47.3356 78.3139 47.338Z" fill="#253138"/>
<path d="M96.059 50.1641C96.0753 50.1922 95.7142 50.3782 95.2224 50.7919C94.9746 50.9963 94.7061 51.2697 94.437 51.595C94.1749 51.9267 93.917 52.314 93.6993 52.7496C93.4882 53.1881 93.3407 53.6287 93.2397 54.0371C93.1478 54.4479 93.0973 54.8254 93.0885 55.1441C93.0648 55.7823 93.1404 56.177 93.1075 56.1817C93.0963 56.184 93.0716 56.0872 93.0366 55.9086C93.0173 55.8195 92.9993 55.7096 92.9916 55.5806C92.9824 55.452 92.9624 55.3049 92.9695 55.142C92.9631 54.8157 93.0017 54.4274 93.0878 54.0036C93.1831 53.5825 93.3309 53.1278 93.5485 52.6769C93.7715 52.2292 94.0414 51.8329 94.3166 51.4982C94.6 51.1692 94.8837 50.8982 95.1471 50.7012C95.2722 50.5946 95.4014 50.5189 95.5092 50.4465C95.6163 50.3725 95.7149 50.3189 95.7973 50.2787C95.961 50.1949 96.0532 50.154 96.059 50.1641Z" fill="#253138"/>
<path d="M97.6833 36.819L92.2289 46.8958C91.3384 48.5411 89.3123 49.2256 87.5893 48.4634C85.692 47.6241 84.9073 45.3741 85.8788 43.5582C86.3931 42.597 86.8198 41.8123 86.8198 41.8123C86.8198 41.8123 84.4487 40.2933 85.5575 37.7607C86.5466 35.5013 90.1794 29.1239 90.9509 27.7754L95.5474 29.8087C98.1294 31.1344 99.0955 34.3049 97.6833 36.819Z" fill="#FFBD9D"/>
<path d="M86.8316 41.7742C86.8316 41.7742 88.3835 42.6158 90.5763 42.3102C90.5763 42.3102 88.9706 43.7757 86.5303 42.4241L86.8316 41.7742Z" fill="#EB996D"/>
<path d="M88.584 33.7171C88.4914 33.9041 88.5745 34.1359 88.7704 34.2354C88.9657 34.3343 89.1992 34.2639 89.2921 34.077C89.385 33.89 89.3012 33.6578 89.106 33.5587C88.9104 33.4592 88.6765 33.5302 88.584 33.7171Z" fill="#FFBD9D"/>
<path d="M88.6049 33.3962C88.6286 33.4632 88.995 33.3838 89.3866 33.5576C89.7798 33.7265 89.9774 34.0525 90.0411 34.024C90.0716 34.0123 90.0638 33.9071 89.9794 33.7617C89.8967 33.6173 89.7262 33.4377 89.4818 33.3308C89.2371 33.2243 88.9923 33.2216 88.833 33.2605C88.671 33.2983 88.592 33.3653 88.6049 33.3962Z" fill="#FFBD9D"/>
<path d="M92.2474 35.4984C92.1546 35.6854 92.238 35.9172 92.4335 36.0164C92.6291 36.1155 92.8627 36.0448 92.9556 35.8582C93.0481 35.6713 92.9647 35.4391 92.7695 35.3399C92.5739 35.2404 92.34 35.3115 92.2474 35.4984Z" fill="#FFBD9D"/>
<path d="M92.421 35.1713C92.4447 35.2383 92.8121 35.1589 93.2033 35.3331C93.5962 35.5017 93.7935 35.8276 93.8575 35.7992C93.8877 35.7874 93.8809 35.6826 93.7959 35.5368C93.7135 35.3928 93.543 35.2129 93.2982 35.106C93.0535 34.9994 92.8084 34.9968 92.6494 35.0356C92.4877 35.0738 92.4084 35.1405 92.421 35.1713Z" fill="#FFBD9D"/>
<path d="M89.7005 37.413C89.712 37.3919 89.4873 37.2428 89.1154 37.0184C89.0202 36.9641 88.9341 36.9024 88.9479 36.8274C88.9568 36.7456 89.0466 36.6579 89.1473 36.564C89.3496 36.3664 89.5615 36.1593 89.7839 35.9422C90.6798 35.0524 91.376 34.3029 91.3398 34.2674C91.3031 34.2322 90.5469 34.9247 89.651 35.8146C89.4327 36.0354 89.2242 36.2451 89.0252 36.4465C88.9364 36.5419 88.8137 36.6408 88.7974 36.8113C88.791 36.8971 88.8402 36.9832 88.8964 37.0287C88.952 37.0763 89.0079 37.1024 89.0561 37.1269C89.4435 37.3236 89.6889 37.4345 89.7005 37.413Z" fill="#FFBD9D"/>
<path d="M90.7312 38.1902C90.6692 38.1584 90.4783 38.5782 89.9793 38.7152C89.4807 38.8539 89.0488 38.6063 89.019 38.6636C89.0011 38.6874 89.0831 38.7899 89.2719 38.8797C89.4566 38.9688 89.7577 39.0305 90.0627 38.9467C90.3675 38.8619 90.5732 38.6599 90.6661 38.4941C90.7617 38.3255 90.7614 38.2006 90.7312 38.1902Z" fill="#FFBD9D"/>
<path d="M93.0065 33.6098C92.9977 33.7321 93.4109 33.855 93.8458 34.113C94.2854 34.3626 94.5959 34.6594 94.6997 34.5918C94.7474 34.5589 94.7274 34.4313 94.6237 34.2631C94.5217 34.0956 94.3281 33.8942 94.0661 33.7418C93.8041 33.59 93.5319 33.5217 93.3339 33.515C93.135 33.5076 93.0126 33.5525 93.0065 33.6098Z" fill="#FFBD9D"/>
<path d="M89.2556 32.3399C89.2848 32.4585 89.5956 32.4863 89.9221 32.6256C90.2532 32.7533 90.4943 32.9496 90.5993 32.8856C90.6471 32.8531 90.6438 32.7459 90.5617 32.6096C90.4807 32.4745 90.3136 32.3191 90.0875 32.2273C89.8614 32.1358 89.6322 32.1301 89.4787 32.17C89.3231 32.2095 89.2448 32.2836 89.2556 32.3399Z" fill="#FFBD9D"/>
<path d="M95.9681 38.3293C96.02 38.33 97.9511 38.592 97.1155 40.2893C96.2803 41.9866 94.7285 40.8076 94.7495 40.7577C94.7705 40.7074 95.9681 38.3293 95.9681 38.3293Z" fill="#FFBD9D"/>
<path d="M95.5906 40.3666C95.6007 40.3649 95.6102 40.4014 95.6495 40.449C95.6875 40.4949 95.7651 40.5512 95.8706 40.5612C96.0844 40.5827 96.3773 40.3713 96.5363 40.0694C96.6166 39.9173 96.6563 39.7538 96.6607 39.6057C96.6699 39.4563 96.6309 39.3303 96.5475 39.2707C96.4668 39.206 96.3753 39.2291 96.3312 39.267C96.2848 39.3032 96.279 39.3424 96.2685 39.341C96.2614 39.3427 96.2458 39.2948 96.2939 39.2311C96.3177 39.2013 96.358 39.1708 96.4143 39.1574C96.4719 39.1444 96.5404 39.1564 96.6004 39.194C96.7282 39.2667 96.7888 39.4442 96.7841 39.607C96.7858 39.7742 96.7444 39.9592 96.6546 40.13C96.4749 40.4667 96.1404 40.7019 95.8573 40.6534C95.7214 40.6262 95.6384 40.5415 95.6058 40.4765C95.5733 40.4091 95.5834 40.3666 95.5906 40.3666Z" fill="#EB996D"/>
<path d="M96.9639 38.6999C96.727 38.5187 96.1575 38.5579 95.9331 38.7539C95.7084 38.9495 95.5575 39.2169 95.3328 39.4132C95.1084 39.6092 94.7528 39.7191 94.5145 39.5389C94.3508 39.4149 94.2962 39.1871 94.3294 38.9857C94.3623 38.784 94.4684 38.6021 94.5758 38.4279C95.0426 37.669 95.5745 36.9474 95.9741 36.152C96.3734 35.3566 96.6375 34.4634 96.5195 33.5833C96.4019 32.7028 95.8409 31.8458 94.9941 31.5496C94.4331 31.3533 93.8104 31.4126 93.2389 31.2491C92.5613 31.0555 91.9874 30.5345 91.7349 29.8835C91.7027 29.8004 91.5105 29.5026 91.5105 29.5026C91.5295 29.461 91.7318 29.119 91.9346 29.0513C93.4433 28.5477 95.4901 29.126 96.7409 30.1003C97.9917 31.0742 98.8676 32.6422 98.8832 34.2162C98.8985 35.7902 97.8964 37.5266 96.9639 38.6999Z" fill="#253138"/>
<path d="M96.9803 38.5296C97.4572 37.7275 98.2315 37.1469 98.8226 36.4229C99.4135 35.6989 99.8196 34.6787 99.3989 33.8465C99.2552 33.5624 99.025 33.3239 98.905 33.029C98.784 32.7325 98.7836 32.4045 98.7375 32.0882C98.5942 31.1109 97.9691 30.2141 97.0962 29.733C96.4928 29.4003 95.7966 29.2642 95.1847 28.9463C94.2163 28.4431 93.5078 27.5103 92.4902 27.1127C92.1526 26.9806 91.7573 26.9167 91.4346 27.0812C91.1116 27.2457 90.9384 27.7083 91.1736 27.9817C91.1319 27.6608 90.7109 27.4842 90.4126 27.6179C90.114 27.7512 89.9614 28.1023 89.9818 28.4253C90.0018 28.7483 90.1642 29.0461 90.3513 29.3115C90.9696 30.1863 91.9143 30.8292 92.9617 31.0882L95.3013 30.9076L97.2196 32.3127L98.6396 34.5464L96.0647 37.8525L96.9803 38.5296Z" fill="#253138"/>
</g>
<defs>
<clipPath id="clip0">
<rect width="172" height="170" fill="white" transform="translate(0.572266)"/>
</clipPath>
</defs>
</svg>
