<svg width="36" height="204" viewBox="0 0 36 204" fill="none" xmlns="http://www.w3.org/2000/svg">
<g filter="url(#filter0_d)">
<path d="M19.4354 16.2663L19.4354 18.0114C21.2912 17.7205 22.5838 16.114 22.5838 14.0227C22.5838 11.5483 20.7649 9.69247 17.718 9.69247C14.7266 9.69247 12.8707 11.4652 12.8707 14.0735C12.8707 16.4141 14.3757 18.0898 16.8132 18.0898L17.9489 18.0898L17.9489 14.2536L16.6101 14.2536L16.6101 16.4325C15.2621 16.4048 14.408 15.5046 14.408 14.0827C14.408 12.4993 15.5945 11.4144 17.7365 11.4144C19.8647 11.4144 21.0465 12.5178 21.0465 14.0458C21.0465 15.1861 20.4371 15.9616 19.4354 16.2663ZM17.7273 32.4192C20.7834 32.4192 22.5838 30.5541 22.5838 28.0751C22.5838 25.5914 20.7834 23.7309 17.7273 23.7309C14.6758 23.7309 12.8707 25.5914 12.8707 28.0751C12.8707 30.5541 14.6712 32.4192 17.7273 32.4192ZM17.7273 30.6972C15.576 30.6972 14.408 29.617 14.408 28.0751C14.408 26.5378 15.576 25.4529 17.7273 25.4529C19.8786 25.4529 21.0465 26.5378 21.0465 28.0751C21.0465 29.617 19.8786 30.6972 17.7273 30.6972ZM21.0188 45.2975L21.0188 48.2197L13 48.2197L13 49.9186L21.0188 49.9186L21.0188 52.8408L22.4545 52.8408L22.4545 45.2975L21.0188 45.2975ZM17.7273 66.5619C20.7834 66.5619 22.5838 64.6969 22.5838 62.2178C22.5838 59.7342 20.7834 57.8737 17.7273 57.8737C14.6758 57.8737 12.8707 59.7342 12.8707 62.2178C12.8707 64.6969 14.6712 66.5619 17.7273 66.5619ZM17.7273 64.84C15.576 64.84 14.408 63.7597 14.408 62.2178C14.408 60.6805 15.576 59.5957 17.7273 59.5957C19.8785 59.5957 21.0465 60.6805 21.0465 62.2178C21.0465 63.7597 19.8785 64.84 17.7273 64.84ZM19.2646 87.9485C21.3651 87.6576 22.5838 86.0418 22.5838 83.946C22.5838 81.4762 20.7834 79.6157 17.7273 79.6157C14.6758 79.6157 12.8707 81.4531 12.8707 83.946C12.8707 86.1942 14.3249 87.6853 16.13 87.9485L16.1392 86.2219C15.0312 86.0049 14.408 85.1001 14.408 83.969C14.408 82.4364 15.5575 81.3377 17.7273 81.3377C19.8601 81.3377 21.0465 82.4271 21.0465 83.9737C21.0465 85.1232 20.3956 86.0234 19.2646 86.2219L19.2646 87.9485ZM17.7273 103.23C20.7834 103.23 22.5838 101.365 22.5838 98.8859C22.5838 96.4023 20.7834 94.5418 17.7273 94.5418C14.6758 94.5418 12.8707 96.4023 12.8707 98.8859C12.8707 101.365 14.6712 103.23 17.7273 103.23ZM17.7273 101.508C15.576 101.508 14.408 100.428 14.408 98.8859C14.408 97.3487 15.576 96.2638 17.7273 96.2638C19.8785 96.2638 21.0465 97.3487 21.0465 98.8859C21.0465 100.428 19.8785 101.508 17.7273 101.508ZM22.4545 116.074L16.4208 116.074C15.2344 116.074 14.3849 115.248 14.3849 113.951C14.3849 112.649 15.2344 111.827 16.4208 111.827L22.4545 111.827L22.4545 110.114L16.2777 110.114C14.2464 110.114 12.8569 111.638 12.8569 113.951C12.8569 116.254 14.2464 117.787 16.2777 117.787L22.4545 117.787L22.4545 116.074ZM13 124.913L13 126.626L16.4624 126.626L16.4624 128.371L13 130.227L13 132.138L16.7486 130.093C17.1964 131.206 18.1474 131.792 19.4307 131.792C21.2358 131.792 22.4545 130.629 22.4545 128.459L22.4545 124.913L13 124.913ZM17.8842 126.626L21.0234 126.626L21.0234 128.196C21.0234 129.475 20.4371 130.047 19.4307 130.047C18.4244 130.047 17.8842 129.475 17.8842 128.205L17.8842 126.626ZM19.8555 143.772L19.8555 145.42C21.4528 145.387 22.5838 144.026 22.5838 142.013C22.5838 140.028 21.4666 138.537 19.7954 138.541C18.4382 138.541 17.658 139.506 17.2564 141.062L16.9794 142.137C16.7209 143.158 16.4023 143.832 15.6683 143.836C14.8604 143.832 14.3203 143.065 14.3203 141.948C14.3203 140.877 14.8004 140.046 15.793 139.977L15.793 138.292C13.9141 138.361 12.8569 139.76 12.8569 141.962C12.8569 144.229 13.9879 145.544 15.6545 145.549C17.2933 145.544 18.0412 144.192 18.3782 142.77L18.5998 141.884C18.7844 141.108 19.1122 140.268 19.9016 140.277C20.6126 140.282 21.1342 140.919 21.1342 141.99C21.1342 143.01 20.6587 143.684 19.8555 143.772ZM13 152.341L13 158.527L14.4357 158.527L14.4357 154.054L17.0163 154.054L17.0163 158.172L18.4521 158.172L18.4521 154.054L21.0188 154.054L21.0188 158.49L22.4545 158.49L22.4545 152.341L13 152.341ZM19.8555 170.641L19.8555 172.289C21.4528 172.256 22.5838 170.894 22.5838 168.882C22.5838 166.897 21.4666 165.405 19.7954 165.41C18.4382 165.41 17.658 166.375 17.2564 167.931L16.9794 169.006C16.7209 170.027 16.4023 170.701 15.6683 170.705C14.8604 170.701 14.3203 169.934 14.3203 168.817C14.3203 167.746 14.8004 166.915 15.793 166.846L15.793 165.161C13.9141 165.23 12.8569 166.629 12.8569 168.831C12.8569 171.098 13.9879 172.413 15.6545 172.418C17.2933 172.413 18.0412 171.061 18.3782 169.639L18.5998 168.752C18.7844 167.977 19.1122 167.137 19.9016 167.146C20.6126 167.15 21.1342 167.788 21.1342 168.859C21.1342 169.879 20.6587 170.553 19.8555 170.641Z" fill="white"/>
</g>
<g filter="url(#filter1_d)">
<path d="M17.4723 180.925L15.9432 180.891L15.6276 196.367L12.1438 193.1L11.0321 194.043L16.3185 199L21.8772 194.286L20.8199 193.294L17.1567 196.401L17.4723 180.925Z" fill="white"/>
</g>
<defs>
<filter id="filter0_d" x="0.856884" y="0.692474" width="27.7269" height="180.725" filterUnits="userSpaceOnUse" color-interpolation-filters="sRGB">
<feFlood flood-opacity="0" result="BackgroundImageFix"/>
<feColorMatrix in="SourceAlpha" type="matrix" values="0 0 0 0 0 0 0 0 0 0 0 0 0 0 0 0 0 0 127 0" result="hardAlpha"/>
<feOffset dx="-3"/>
<feGaussianBlur stdDeviation="4.5"/>
<feComposite in2="hardAlpha" operator="out"/>
<feColorMatrix type="matrix" values="0 0 0 0 0 0 0 0 0 0 0 0 0 0 0 0 0 0 0.25 0"/>
<feBlend mode="normal" in2="BackgroundImageFix" result="effect1_dropShadow"/>
<feBlend mode="normal" in="SourceGraphic" in2="effect1_dropShadow" result="shape"/>
</filter>
<filter id="filter1_d" x="3.0321" y="175.891" width="20.8451" height="28.109" filterUnits="userSpaceOnUse" color-interpolation-filters="sRGB">
<feFlood flood-opacity="0" result="BackgroundImageFix"/>
<feColorMatrix in="SourceAlpha" type="matrix" values="0 0 0 0 0 0 0 0 0 0 0 0 0 0 0 0 0 0 127 0" result="hardAlpha"/>
<feOffset dx="-3"/>
<feGaussianBlur stdDeviation="2.5"/>
<feComposite in2="hardAlpha" operator="out"/>
<feColorMatrix type="matrix" values="0 0 0 0 0 0 0 0 0 0 0 0 0 0 0 0 0 0 0.25 0"/>
<feBlend mode="normal" in2="BackgroundImageFix" result="effect1_dropShadow"/>
<feBlend mode="normal" in="SourceGraphic" in2="effect1_dropShadow" result="shape"/>
</filter>
</defs>
</svg>
