<svg width="17" height="17" viewBox="0 0 17 17" fill="none" xmlns="http://www.w3.org/2000/svg">
<path d="M16.8307 5.10002C16.8307 5.10002 16.6646 3.92795 16.1533 3.41331C15.5059 2.73596 14.782 2.73264 14.45 2.6928C12.0727 2.52014 8.50332 2.52014 8.50332 2.52014H8.49668C8.49668 2.52014 4.92734 2.52014 2.55 2.6928C2.21797 2.73264 1.49414 2.73596 0.84668 3.41331C0.335352 3.92795 0.172656 5.10002 0.172656 5.10002C0.172656 5.10002 0 6.47795 0 7.85256V9.14084C0 10.5155 0.169336 11.8934 0.169336 11.8934C0.169336 11.8934 0.335351 13.0655 0.843359 13.5801C1.49082 14.2574 2.34082 14.2342 2.71934 14.3073C4.08066 14.4367 8.5 14.4766 8.5 14.4766C8.5 14.4766 12.0727 14.4699 14.45 14.3006C14.782 14.2608 15.5059 14.2574 16.1533 13.5801C16.6646 13.0655 16.8307 11.8934 16.8307 11.8934C16.8307 11.8934 17 10.5188 17 9.14084V7.85256C17 6.47795 16.8307 5.10002 16.8307 5.10002ZM6.74356 10.7047V5.92678L11.3355 8.32405L6.74356 10.7047Z" fill="white"/>
</svg>
