<svg width="22" height="16" viewBox="0 0 22 16" fill="none" xmlns="http://www.w3.org/2000/svg">
<path d="M21.7809 3.41354C21.7809 3.41354 21.566 1.86273 20.9043 1.18178C20.0664 0.28556 19.1297 0.281166 18.7 0.228448C15.6234 -1.25691e-07 11.0043 0 11.0043 0H10.9957C10.9957 0 6.37656 -1.25691e-07 3.3 0.228448C2.87031 0.281166 1.93359 0.28556 1.0957 1.18178C0.433984 1.86273 0.223437 3.41354 0.223437 3.41354C0.223437 3.41354 0 5.23672 0 7.05552V8.76009C0 10.5789 0.219141 12.4021 0.219141 12.4021C0.219141 12.4021 0.433984 13.9529 1.09141 14.6338C1.9293 15.53 3.0293 15.4993 3.51914 15.5959C5.28086 15.7673 11 15.82 11 15.82C11 15.82 15.6234 15.8112 18.7 15.5872C19.1297 15.5344 20.0664 15.53 20.9043 14.6338C21.566 13.9529 21.7809 12.4021 21.7809 12.4021C21.7809 12.4021 22 10.5833 22 8.76009V7.05552C22 5.23672 21.7809 3.41354 21.7809 3.41354ZM8.72695 10.8293V4.50745L14.6695 7.67935L8.72695 10.8293Z" fill="white"/>
</svg>
